<svg xmlns="http://www.w3.org/2000/svg" version="1.1" viewBox="0 0 512 512">
  <defs>
    <style>
      .st0 {
        fill: none;
        stroke: #b0a11a;
        stroke-miterlimit: 10;
        stroke-width: .3px;
      }

      .st1 {
        fill: #b1a317;
      }

      .st2 {
        display: none;
      }
    </style>
  </defs>
  <g id="Layer_2" class="st2">
    <rect class="st1" x="18.7" y="250.6" width="8.8" height="13.1"/>
  </g>
  <g id="Layer_1">
    <rect y="0" width="512" height="512" rx="50" ry="50"/>
    <g>
      <path class="st1" d="M93.4,113.6c1.8,45.4,2.9,80.3,3.5,106.6,1.3-.1,1.9-.4,3.5-.5,5.7-.2,8.8-1.7,9.2-4.7,1-6,1.3-15.5,1-28.4-.6-20.3-1-30-1-29.1,0-18.3,1.7-27.5,5.2-27.5s10.3.9,18.2,2.8c9,2.1,15.2,3.2,18.7,3.5,8.1,1.1,20.2,2.6,36.5,4.5,3.9.3,5.9,1.7,5.9,4,0,6.3-.5,15.9-1.5,28.6-1,12.8-1.5,22.4-1.5,28.9s2.3,11.6,6.9,11.6,13.9-.2,25.1-.7c11.2-.5,19.6-.7,25.3-.7s5.2,1.2,5.2,3.6c0,3.6-.4,9.1-1.2,16.3-.8,7.3-1.2,12.7-1.2,16.3s0,9.3.2,16.6c.2,7.3.2,12.8.2,16.6s-2.3,5-6.9,5-8.4-.1-15.9-.3c-7.4-.2-12.7-.4-15.9-.4h-17.7c-2.4,0-3.5,3.5-3.5,10.4v16.8c.1,7.6.2,13.2.2,16.8,0,13.2,1.5,22.4,4.5,27.4,4.3,6.8,12.6,10.2,25.1,10.2s6-.9,9.1-1.5c-1.7-1.5-3.2-3-4-4.8-2.2-4.8-3.3-15.6-3.3-32.2s.1-19.3.3-20.4c1.5-4.4,6.8-6.6,15.8-6.6h34.9c44.5,0,73,.7,85.5,2l29.6,3.3c6.4,0,9.5-2.2,9.5-6.6,0-17.5.9-35.1,2.6-52.6,3.9-38.2,5.9-54.9,5.9-50.3,0-5-2.6-7.6-7.9-7.6s-10.3.4-17.8,1.3c-9.6.9-15.7,1.4-18.1,1.6-28.3,1.5-56.2,2.3-83.9,2.3s-9.4.2-15.8.5c-6.4.3-10.6.5-12.8.5-10.5,0-17.6-2.1-21.4-6.2-4.4-4.8-6.6-14.7-6.6-29.6s.5-22.7,1.6-25.3c2.6-5.5,9.8-8.2,21.4-8.2,46.5,0,98.9,2.4,157.2,7.2,3.3.2,5.6.3,6.9.3,4.4,0,6.6-2.3,6.6-6.9s-1.2-21-3.5-46.5c-2.3-25.5-4-40.8-5.1-45.9-1.8-8.6-8.3-12.8-19.7-12.8s-40.1.4-72.4,1.3c-32.2.9-56.4,1.3-72.4,1.3s-40.6-.4-73.2-1.3c-32.6-.9-57-1.3-73.2-1.3s-8.7,2.5-8.2,7.6l.3,4.6c1.8,34.9,3,61.1,3.6,78.6Z"/>
      <path class="st1" d="M420,370.1c-11.4,0-28.6,1-51.5,3.1-22.9,2.1-40.2,3.1-51.8,3.1-32.5,0-48.5,0-48,0-3.8-.2-6.9-.7-10.2-1.1-.3,3.9-.7,8.4-1.4,13.8-1.2,9.6-1.8,16.7-1.8,21.2s-.5,7.4-1.4,8.6c-1,1.3-3.6,3.1-7.8,5.4-20.4,11.2-42.9,16.8-67.7,16.8-45.6,0-68.4-17.4-68.4-52.3s.4-26.1,1.2-47c.8-20.9,1.2-36.6,1.2-47s-4-10.4-12.1-10.4h-3.1c-.2,0-.3,0-.5,0-.6,21.5-1.8,47.6-3.5,79.5-2.7,49.2-4.1,86.1-4.1,110.7s3.6,9.5,10.9,9.5c16.7,0,41.7.1,75,.3,33.3.2,58.4.3,75.3.3,77.4,0,124.1,1.1,140.1,3.3,4.6.7,7.9,1,9.9,1,4.6,0,8.2-2.1,10.9-6.2,3.1-5.3,6.6-21.6,10.5-49,3.7-25.2,5.6-42.5,5.6-52s-2.4-11.8-7.2-11.8Z"/>
      <path class="st0" d="M98.5,218.6s-9.2-.7-12.1,4.8c-2.9,5.6,0,12.3,0,23.2s-1.4,27.1-1.4,27.1c0,0-.7,5.3.5,8,1.2,2.7,13.6,4.3,13.6,4.3"/>
      <path class="st0" d="M227.8,365.3s16.9-3.2,22.5-4.1c1.6-.3,5.2.1,6.4,1.5s1.7,2.4,1.7,3.7,1.4,9.8,1.4,9.8"/>
    </g>
  </g>
</svg>