<svg aria-hidden="true" style="position: absolute; width: 0; height: 0; overflow: hidden;" version="1.1" xmlns="http://www.w3.org/2000/svg" xmlns:xlink="http://www.w3.org/1999/xlink">
<defs>
<symbol id="icon-spinner" viewBox="0 0 32 32">
<path fill="none" stroke="#b4b4b4" style="stroke: var(--color1, #b4b4b4)" stroke-linejoin="miter" stroke-linecap="butt" stroke-miterlimit="10" stroke-width="3.7333" d="M16 28.933c-7.067 0-12.933-5.867-12.933-12.933 0-2.933 0.933-5.6 2.533-7.733 2.4-3.2 6.133-5.2 10.4-5.2s8 2 10.267 5.2 2.533 4.8 2.533 7.733c0 7.067-5.867 12.933-12.933 12.933z"></path>
<path fill="none" stroke="rgb(180, 180, 180)" style="stroke: var(--color2, rgb(0, 0, 0))" stroke-linejoin="miter" stroke-linecap="butt" stroke-miterlimit="10" stroke-width="3.7333" d="M5.6 8.267c2.4-3.2 6.133-5.2 10.4-5.2s8 2 10.267 5.2"></path>
</symbol>
<symbol id="icon-my-logo" viewBox="0 0 51.7 66.6">
  <g id="Layer_1">
    <path d="M.2 0h51.4v66.9H.2z" style="fill:#fff"/>
    <path d="M2 1.9h48v62.6H2z" style="stroke-width:1.6px;fill:none;stroke:#9c8a03;stroke-miterlimit:10"/>
    <path d="M6.1 15.8c.2 5.5.3 9.8.4 13h.4c.7 0 1.1-.2 1.1-.6.1-.7.2-1.9.1-3.5 0-2.5-.1-3.7-.1-3.6 0-2.2.2-3.4.6-3.4s1.3.1 2.2.3c1.1.3 1.9.4 2.3.4 1 .1 2.5.3 4.4.5.5 0 .7.2.7.5 0 .8 0 1.9-.2 3.5-.1 1.6-.2 2.7-.2 3.5s.3 1.4.8 1.4h6.2c.7 0 .6.1.6.4 0 .4 0 1.1-.1 2 0 .9-.1 1.5-.1 2v4c0 .4-.3.6-.8.6h-6c-.3 0-.4.4-.4 1.3v4.1c0 1.6.2 2.7.5 3.3.5.8 1.5 1.2 3.1 1.2s.7-.1 1.1-.2c-.2-.2-.4-.4-.5-.6-.3-.6-.4-1.9-.4-3.9v-2.5c.2-.5.8-.8 1.9-.8H28c5.4 0 8.9 0 10.4.2l3.6.4c.8 0 1.2-.3 1.2-.8 0-2.1.1-4.3.3-6.4.5-4.7.7-6.7.7-6.1 0-.6-.3-.9-1-.9s-1.3 0-2.2.2c-1.2.1-1.9.2-2.2.2q-5.25.3-10.2.3h-3.5c-1.3 0-2.2-.3-2.6-.8-.5-.6-.8-1.8-.8-3.6s0-2.8.2-3.1c.3-.7 1.2-1 2.6-1q8.55 0 19.2.9h.8c.5 0 .8-.3.8-.8s-.1-2.6-.4-5.7-.5-5-.6-5.6c-.2-1-1-1.6-2.4-1.6s-4.9 0-8.8.2c-3.9.1-6.9.2-8.8.2s-5 0-8.9-.2c-4-.1-7-.2-8.9-.2s-1.1.3-1 .9V6c.3 4.3.4 7.5.5 9.6Z"/>
    <path d="M46 47.1c-1.4 0-3.5.1-6.3.4s-4.9.4-6.3.4h-5.9c-.5 0-.8 0-1.2-.1 0 .5 0 1-.2 1.7-.1 1.2-.2 2-.2 2.6s0 .9-.2 1.1c-.1.2-.4.4-1 .7-2.5 1.4-5.2 2.1-8.3 2.1-5.6 0-8.3-2.1-8.3-6.4s0-3.2.1-5.7c0-2.6.1-4.5.1-5.7s-.5-1.3-1.5-1.3h-.4c0 2.6-.2 5.8-.4 9.7-.3 6-.5 10.5-.5 13.5s.4 1.2 1.3 1.2h18.4c9.4 0 15.1.1 17.1.4.6 0 1 .1 1.2.1.6 0 1-.3 1.3-.8.4-.6.8-2.6 1.3-6 .5-3.1.7-5.2.7-6.3s-.3-1.4-.9-1.4Z"/>
    <path d="M6.7 28.6s-1.1 0-1.5.6 0 1.5 0 2.8-.2 3.3-.2 3.3v1c0 .4 1.7.5 1.7.5M22.5 46.6s2.1-.4 2.7-.5.6 0 .8.2.2.3.2.5.2 1.2.2 1.2" style="fill:none;stroke:#9c8a03;stroke-miterlimit:10;stroke-width:.3px"/>
  </g>
</symbol>
</defs>
</svg>
