<svg width="146" height="57" viewBox="0 0 146 57" fill="none" xmlns="http://www.w3.org/2000/svg">
<path d="M54.89 8.07014L61.1759 0.248974C61.1759 0.248974 84.0612 -2.08324 109.507 7.52832C112.511 8.65909 115.141 10.5908 109.67 9.78986C103.338 8.87111 95.7716 8.56486 86.0401 9.24803C72.6767 10.2139 67.8808 15.3495 61.3621 18.0586H61.3156C61.269 18.1057 60.9198 16.8572 60.4076 15.9149C59.9885 15.161 58.2192 13.1822 58.2192 13.1822C57.4043 13.2764 47.5564 15.5144 45.3447 16.3154L54.8434 8.07014H54.89Z" fill="#0099DB"/>
<path d="M54.8885 8.06996L61.1744 0.272354C61.1744 0.272354 83.9898 -2.05986 109.39 7.50458C112.393 8.63535 115 10.5435 109.552 9.76612C103.243 8.84737 95.7002 8.54112 85.992 9.24785C72.652 10.2137 67.9026 15.3257 61.4072 18.0349H61.3606C61.3141 18.0584 60.9649 16.8334 60.4527 15.9147C60.0336 15.1608 58.2642 13.182 58.2642 13.182C57.4494 13.2762 47.6248 15.5142 45.4131 16.3152L54.8885 8.09352V8.06996Z" fill="#0099DB"/>
<path d="M54.9111 8.06961L61.1737 0.295553C61.1737 0.295553 83.9193 -2.03666 109.249 7.45711C112.229 8.58788 114.837 10.4961 109.389 9.71865C103.08 8.7999 95.5599 8.49365 85.8982 9.20038C72.6047 10.1662 67.8787 15.2783 61.3833 17.9639H61.36C61.3134 18.011 60.9642 16.786 60.452 15.8437C60.0329 15.0898 58.2636 13.111 58.2636 13.111C57.472 13.2052 47.6474 15.4432 45.459 16.2206L54.9111 8.04605V8.06961Z" fill="#0099DC"/>
<path d="M54.9355 8.07008L61.1749 0.343145C61.1749 0.343145 83.8739 -1.98907 109.111 7.45758C112.091 8.5648 114.675 10.473 109.25 9.69557C102.964 8.77681 95.4679 8.49412 85.8062 9.20085C72.5593 10.1667 67.8565 15.3494 61.3844 17.9643H61.3611C61.3145 17.9879 60.9653 16.7864 60.4531 15.8677C60.0574 15.1138 58.2647 13.135 58.2647 13.135C57.4732 13.2292 47.6951 15.4437 45.4834 16.2446L54.9355 8.09364V8.07008Z" fill="#0099DC"/>
<path d="M54.959 8.04677L61.175 0.36695C61.175 0.36695 83.8042 -1.96527 108.971 7.43427C111.928 8.54148 114.512 10.4261 109.087 9.6487C102.825 8.7535 95.3284 8.44725 85.7133 9.15399C72.4896 10.1199 67.8101 15.2083 61.3613 17.8939H61.338C61.2914 17.941 60.9422 16.716 60.43 15.7973C60.0342 15.067 58.2649 13.0881 58.2649 13.0881C57.4733 13.1824 47.6953 15.3968 45.5068 16.1742L54.9357 8.04677H54.959Z" fill="#009ADC"/>
<path d="M54.9594 8.04679L61.1755 0.390528C61.1755 0.390528 83.7348 -1.94169 108.832 7.41073C111.789 8.51795 114.349 10.379 108.948 9.62516C102.709 8.72997 95.2124 8.42371 85.6439 9.13045C72.4668 10.0963 67.8106 15.1612 61.385 17.8468H61.3617C61.3152 17.8939 60.9659 16.6689 60.477 15.7502C60.0813 15.0199 58.3119 13.041 58.2886 13.041C57.4971 13.1353 47.7656 15.3497 45.5771 16.1271L54.9827 8.02323L54.9594 8.04679Z" fill="#009ADC"/>
<path d="M54.9814 8.04665L61.1741 0.413941C61.1741 0.413941 83.6637 -1.91828 108.714 7.38703C111.671 8.49424 114.208 10.3553 108.831 9.60146C102.614 8.70626 95.1413 8.42357 85.596 9.1303C72.4655 10.0962 67.8325 15.1611 61.4302 17.8231H61.407C61.3604 17.8702 61.0112 16.6688 60.5223 15.75C60.1032 15.0197 58.3571 13.0409 58.3571 13.0409C57.5656 13.1351 47.8341 15.3495 45.6689 16.127L55.0512 8.07021L54.9814 8.04665Z" fill="#009ADC"/>
<path d="M55.0055 8.04652L61.175 0.46093C61.175 0.46093 83.5947 -1.87129 108.575 7.3869C111.509 8.47056 114.046 10.3316 108.668 9.57777C102.452 8.68258 95.0024 8.39989 85.4804 9.10662C72.3965 10.0725 67.7868 15.1374 61.3845 17.7759H61.3612C61.3147 17.7994 60.9654 16.6215 60.4765 15.7028C60.0808 14.9725 58.3114 13.0172 58.2881 13.0172C57.4966 13.1114 47.8116 15.3023 45.6465 16.0797L55.0055 8.04652Z" fill="#009ADC"/>
<path d="M55.0284 8.04647L61.1979 0.48444C61.1979 0.48444 83.571 -1.84778 108.459 7.3633C111.392 8.44695 113.906 10.308 108.552 9.55417C102.359 8.68253 94.9322 8.39984 85.4335 9.10657C72.3728 10.0724 67.7864 15.1138 61.4307 17.7523H61.4074C61.3609 17.7994 61.0117 16.5979 60.5227 15.7027C60.127 14.9724 58.3576 13.0172 58.3576 13.0172C57.5661 13.1114 47.8811 15.3023 45.7393 16.0797L55.075 8.07003L55.0284 8.04647Z" fill="#009BDD"/>
<path d="M55.0291 8.0465L61.1753 0.508028C61.1753 0.508028 83.4786 -1.82419 108.296 7.33977C111.206 8.42343 113.721 10.2609 108.366 9.50708C102.197 8.63545 94.7699 8.35275 85.3178 9.05949C72.3036 10.0489 67.7406 15.0667 61.3848 17.7052H61.3383C61.2917 17.7287 60.9658 16.5508 60.4536 15.6557C60.0578 14.9254 58.2884 12.9701 58.2884 12.9701C57.4969 13.0643 47.8585 15.2552 45.6934 16.0326L55.0058 8.07006L55.0291 8.0465Z" fill="#009BDD"/>
<path d="M55.0528 8.04649L61.1758 0.531574C61.1758 0.531574 83.4092 -1.80064 108.157 7.3162C111.067 8.3763 113.558 10.2138 108.227 9.48352C102.081 8.61188 94.6772 8.32919 85.2484 9.05948C72.2576 10.0489 67.741 15.0431 61.4086 17.6816H61.3853C61.3387 17.7052 60.9895 16.5508 60.5006 15.6321C60.1048 14.9018 58.3355 12.9465 58.3355 12.9465C57.5439 13.0407 47.9055 15.2316 45.7637 15.9855L55.0528 8.04649Z" fill="#009BDD"/>
<path d="M55.0764 8.04651L61.1761 0.578708C61.1761 0.578708 83.3397 -1.75351 108.018 7.29266C110.904 8.35276 113.396 10.1667 108.087 9.43642C101.965 8.58834 94.5611 8.30564 85.1556 9.01238C72.2113 10.0018 67.7646 15.3494 61.4089 17.611H61.3856C61.339 17.6581 61.0131 16.4802 60.5009 15.585C60.1051 14.8547 58.3358 12.8994 58.3358 12.8994C57.5442 12.9936 47.9291 15.1845 45.8105 15.9383L55.0764 8.02295V8.04651Z" fill="#009CDD"/>
<path d="M55.0981 8.04655L61.1977 0.602302C61.1977 0.602302 83.2915 -1.72991 107.923 7.26914C110.81 8.32924 113.278 10.1432 107.969 9.4129C101.846 8.56482 94.4664 8.28212 85.1074 9.01241C72.2097 10.0018 67.7164 14.9018 61.4305 17.5874H61.4072C61.3607 17.611 61.0347 16.4567 60.5226 15.5615C60.1268 14.8547 58.3574 12.8994 58.3574 12.8994C57.5891 12.9937 47.9973 15.161 45.8555 15.9384L55.0981 8.0701V8.04655Z" fill="#009DDE"/>
<path d="M55.0984 8.04666L61.1747 0.625975C61.1747 0.625975 83.1986 -1.70624 107.76 7.2457C110.624 8.3058 113.092 10.0962 107.807 9.36589C101.707 8.51782 94.3503 8.23512 85.0146 8.96541C72.1401 9.95484 67.7633 15.2789 61.4308 17.5169H61.4076C61.361 17.564 61.035 16.3861 60.5229 15.5145C60.1271 14.8077 58.381 12.8524 58.381 12.8524C57.6127 12.9467 48.0442 15.114 45.9023 15.8914L55.1217 8.04666H55.0984Z" fill="#009DDE"/>
<path d="M55.1218 8.04668L61.1982 0.673106C61.1982 0.673106 83.1755 -1.65911 107.644 7.24571C110.508 8.28225 112.952 10.0726 107.667 9.36591C101.591 8.51783 94.234 8.2587 84.9216 8.96543C72.0937 9.95485 67.6703 14.902 61.4077 17.5169H61.3844C61.3379 17.5404 61.0119 16.3861 60.4997 15.5145C60.104 14.8077 58.3579 12.8525 58.3579 12.8525C57.5896 12.9467 48.0444 15.114 45.9258 15.8678L55.1218 8.04668Z" fill="#009DDE"/>
<path d="M55.1452 8.04711L61.1983 0.697099C61.1983 0.697099 83.1058 -1.65867 107.504 7.22259C110.368 8.25913 112.789 10.0495 107.504 9.31923C101.451 8.49471 94.1178 8.21202 84.8286 8.94231C72.0473 9.93173 67.6938 15.1851 61.4079 17.4702H61.3846C61.338 17.4938 61.0121 16.363 60.4999 15.4678C60.1041 14.7611 58.358 12.8058 58.358 12.8058C57.5898 12.9 48.0678 15.0673 45.9492 15.8212L55.122 8.02355L55.1452 8.04711Z" fill="#009EDE"/>
<path d="M55.1446 8.04683L61.1744 0.72037C61.1744 0.72037 83.012 -1.61185 107.341 7.19875C110.181 8.23529 112.602 10.0021 107.341 9.29539C101.311 8.47087 93.9774 8.21173 84.7348 8.91846C71.9768 9.90789 67.6 14.855 61.4072 17.4228H61.3839C61.3374 17.4699 61.0114 16.3156 60.5225 15.444C60.1267 14.7372 58.3807 12.8055 58.3807 12.8055C57.6124 12.8997 48.1137 15.0435 45.9951 15.8209L55.1446 8.07038V8.04683Z" fill="#009EDE"/>
<path d="M55.1682 8.04696L61.1747 0.767622C61.1747 0.767622 82.9425 -1.56459 107.225 7.19888C110.065 8.23542 112.463 9.9787 107.225 9.27196C101.195 8.44744 93.9079 8.18831 84.6653 8.9186C71.9538 9.90802 67.6701 15.185 61.4075 17.3994H61.3842C61.3377 17.4465 61.0117 16.2922 60.5228 15.4205C60.127 14.7138 58.381 12.7821 58.381 12.7821C57.6127 12.8763 48.1373 15.0201 46.042 15.7739L55.1915 8.04696H55.1682Z" fill="#009EDF"/>
<path d="M55.1908 8.04633L61.1973 0.790543C61.1973 0.790543 82.8953 -1.54167 107.108 7.17469C109.925 8.21123 112.323 9.9545 107.108 9.24777C101.101 8.44681 93.8141 8.18767 84.6181 8.8944C71.9532 9.88383 67.6229 14.8074 61.4534 17.3516H61.4068C61.3603 17.3987 61.0343 16.2444 60.5454 15.3963C60.1497 14.6896 58.4036 12.7579 58.4036 12.7579C57.6353 12.8521 48.1832 14.9959 46.0879 15.7497L55.2141 8.04633H55.1908Z" fill="#009FDF"/>
<path d="M55.2144 8.04644L61.1976 0.814217C61.1976 0.814217 82.849 -1.518 106.968 7.15125C109.785 8.16423 112.16 9.9075 106.945 9.22433C100.962 8.42337 93.6748 8.16423 84.5253 8.87096C71.8836 9.86039 67.6465 15.1138 61.4537 17.3282H61.4304C61.3839 17.3517 61.0579 16.2445 60.569 15.3729C60.1733 14.6897 58.4272 12.7344 58.4272 12.7344C57.6589 12.8287 48.2301 14.9724 46.1348 15.7263L55.2377 8.07L55.2144 8.04644Z" fill="#009FDF"/>
<path d="M55.2144 8.04664L61.1743 0.861532C61.1743 0.861532 82.7559 -1.47068 106.805 7.15145C109.599 8.16443 111.974 9.88415 106.759 9.20097C100.799 8.40001 93.5351 8.16443 84.4089 8.87116C71.8138 9.86059 67.5301 14.6899 61.4072 17.3048H61.3839C61.3373 17.3519 61.0114 16.2212 60.5225 15.3731C60.1267 14.6899 58.3806 12.7346 58.3806 12.7582C57.6356 12.8524 48.2068 14.9726 46.1348 15.7265L55.2144 8.09376V8.04664Z" fill="#009FDF"/>
<path d="M55.238 8.04698L61.1979 0.885428C61.1979 0.885428 82.7097 -1.44679 106.689 7.10467C109.483 8.11765 111.834 9.81381 106.643 9.13064C100.683 8.35323 93.4423 8.09409 84.3393 8.82438C71.7908 9.81381 67.6002 15.0436 61.4307 17.2345H61.4075C61.3609 17.2581 61.035 16.1508 60.5461 15.3028C60.1503 14.6196 58.4042 12.6879 58.4042 12.6879C57.6359 12.7821 48.2537 14.9023 46.1816 15.6561L55.238 8.04698Z" fill="#00A0DF"/>
<path d="M55.2606 8.04644L61.1973 0.908445C61.1973 0.908445 82.6392 -1.42377 106.572 7.08057C109.366 8.07 111.694 9.78971 106.526 9.10654C100.589 8.32913 93.3717 8.07 84.2921 8.80029C71.7669 9.78971 67.553 14.6662 61.4534 17.1868H61.4301C61.3835 17.234 61.0576 16.1032 60.5687 15.2551C60.1729 14.5719 58.4501 12.6402 58.4268 12.6402C57.6818 12.7344 48.2996 14.8546 46.2275 15.5849L55.2606 8.02288V8.04644Z" fill="#00A0E0"/>
<path d="M55.2842 8.04627L61.1976 0.955389C61.1976 0.955389 82.5696 -1.40038 106.433 7.0804C109.203 8.06982 111.531 9.76598 106.363 9.10637C100.449 8.32896 93.2324 8.09338 84.1993 8.80011C71.7206 9.78954 67.5766 14.9487 61.4537 17.1631H61.4304C61.3838 17.1867 61.0579 16.0795 60.569 15.2549C60.1732 14.5718 58.4504 12.64 58.4504 12.64C57.7054 12.7343 48.3464 14.8545 46.2744 15.5847L55.2842 8.04627Z" fill="#00A1E0"/>
<path d="M55.2837 8.0466L61.1971 0.979275C61.1971 0.979275 82.4993 -1.3765 106.293 7.05717C109.063 8.0466 111.368 9.7192 106.223 9.05958C100.333 8.28217 93.1387 8.0466 84.129 8.77689C71.6968 9.76631 67.5063 14.5485 61.4765 17.1399H61.4532C61.4066 17.187 61.0807 16.0798 60.5918 15.2317C60.2193 14.5485 58.4732 12.6404 58.4732 12.6404C57.7282 12.7346 48.3925 14.8548 46.3438 15.5851L55.3303 8.07015L55.2837 8.0466Z" fill="#00A1E0"/>
<path d="M55.3088 8.04609L61.1989 1.00233C61.1989 1.00233 82.4545 -1.35344 106.155 7.03311C108.902 8.02254 111.207 9.69513 106.062 9.03552C100.195 8.28167 93.0008 8.04609 84.0143 8.75282C71.6055 9.74225 67.5313 14.8778 61.4317 17.0923H61.3851C61.3386 17.1158 61.0126 16.0322 60.547 15.1841C60.1745 14.5009 58.4284 12.5927 58.4284 12.5927C57.6834 12.687 48.371 14.7836 46.3223 15.5375L55.2855 8.06965L55.3088 8.04609Z" fill="#00A1E0"/>
<path d="M55.3306 8.04653L61.1974 1.04988C61.1974 1.04988 82.3832 -1.30589 106.013 7.03355C108.761 7.99942 111.042 9.67201 105.92 9.0124C100.054 8.25855 92.883 8.02297 83.943 8.75326C71.5808 9.76625 67.46 14.5014 61.4535 17.0691H61.4302C61.3836 17.1163 61.0577 16.009 60.5921 15.1845C60.1963 14.5249 58.4735 12.5932 58.4735 12.5932C57.7285 12.6874 48.4394 14.784 46.3906 15.5143L55.3306 8.07009V8.04653Z" fill="#00A1E0"/>
<path d="M55.3317 8.04687L61.1753 1.07378C61.1753 1.07378 82.2912 -1.28199 105.875 7.01033C108.599 7.9762 110.88 9.62524 105.759 8.98918C99.915 8.23533 92.7677 7.99976 83.851 8.73005C71.5121 9.71947 67.5077 14.8786 61.4313 17.0224H61.4081C61.3615 17.0459 61.0356 15.9623 60.5699 15.1378C60.1974 14.4781 58.4514 12.5464 58.4514 12.5464C57.7064 12.6406 48.4405 14.7373 46.415 15.4676L55.3317 8.04687Z" fill="#00A2E0"/>
<path d="M55.3553 8.04644L61.1988 1.09691C61.1988 1.09691 82.2449 -1.25887 105.759 6.98634C108.483 7.95221 110.741 9.57769 105.642 8.94163C99.8222 8.21134 92.6749 7.97577 83.7815 8.70606C71.4891 9.69548 67.4149 14.4306 61.4549 16.9748H61.4317C61.3851 16.9984 59.8951 14.4541 59.4062 13.6296C59.0337 12.97 58.475 12.5224 58.475 12.5224C57.73 12.6166 48.4874 14.7133 46.4619 15.4436L55.3553 8.07V8.04644Z" fill="#00A2E0"/>
<path d="M55.3779 8.04627L61.1982 1.14385C61.1982 1.14385 82.1744 -1.21192 105.618 6.96261C108.319 7.92848 110.577 9.55396 105.502 8.91791C99.7051 8.18762 92.5811 7.95204 83.711 8.68233C71.4651 9.69531 67.4841 14.7602 61.4776 16.9511H61.4543C61.4077 16.9982 59.9177 14.4304 59.4288 13.6059C59.0563 12.9463 58.4976 12.4987 58.4976 12.4987C57.7526 12.5929 48.5333 14.666 46.5078 15.3963L55.3779 8.04627Z" fill="#00A3E1"/>
<path d="M55.4012 8.04676L61.1982 1.1679C61.1982 1.1679 82.1046 -1.18788 105.479 6.93954C108.179 7.88185 110.414 9.50733 105.339 8.87128C99.5654 8.14099 92.4414 7.92897 83.6179 8.6357C71.4186 9.64868 67.3909 14.3367 61.4543 16.8809H61.431C61.3844 16.9045 59.8944 14.3602 59.4055 13.5593C59.033 12.8996 58.4743 12.4756 58.4743 12.4756C57.7293 12.5698 48.5333 14.6429 46.5078 15.3732L55.3779 8.04676H55.4012Z" fill="#00A3E1"/>
<path d="M55.4026 8.04647L61.1996 1.19117C61.1996 1.19117 82.0595 -1.1646 105.341 6.9157C108.041 7.85801 110.253 9.45994 105.201 8.84744C99.4272 8.11715 92.3497 7.90513 83.5495 8.63542C71.3735 9.6484 67.4622 14.7369 61.479 16.8571H61.4557C61.4092 16.8806 59.9192 14.3599 59.4303 13.5354C59.0578 12.8758 58.499 12.4518 58.499 12.4518C57.7773 12.546 48.5813 14.6191 46.5791 15.3258L55.4259 8.02292L55.4026 8.04647Z" fill="#00A4E1"/>
<path d="M55.4241 8.04677L61.1978 1.23858C61.1978 1.23858 81.9878 -1.11719 105.199 6.916C107.876 7.85831 110.088 9.43668 105.036 8.82418C99.2857 8.11744 92.2082 7.88187 83.4545 8.61215C71.3251 9.62514 67.4139 14.5958 61.4539 16.8102H61.4306C61.3841 16.8338 59.8941 14.3131 59.4285 13.4886C59.056 12.8525 58.4972 12.405 58.4972 12.405C57.7755 12.4992 48.6028 14.5723 46.6006 15.279L55.4241 8.02321V8.04677Z" fill="#00A4E2"/>
<path d="M55.4479 8.04666L61.1983 1.26203C61.1983 1.26203 81.9185 -1.09374 105.083 6.89233C107.76 7.83464 109.949 9.41301 104.92 8.80051C99.193 8.09378 92.1156 7.88176 83.3852 8.61205C71.279 9.62503 67.4143 14.6428 61.4777 16.8101H61.4544C61.4078 16.8337 59.9178 14.313 59.4522 13.5121C59.0797 12.876 58.5443 12.4284 58.5443 12.4284C57.8225 12.5226 48.6731 14.5957 46.6709 15.3024L55.4712 8.07022L55.4479 8.04666Z" fill="#00A5E2"/>
<path d="M55.4715 8.04634L61.2219 1.28527C61.2219 1.28527 81.8722 -1.07051 104.967 6.86845C107.621 7.7872 109.81 9.36557 104.781 8.75307C99.0769 8.04634 92.0228 7.83432 83.3156 8.56461C71.256 9.57759 67.3914 14.5954 61.5013 16.7391H61.478C61.4547 16.7627 59.9414 14.242 59.4758 13.4411C59.1033 12.805 58.5678 12.381 58.5446 12.381C57.8229 12.4752 48.6967 14.5247 46.7178 15.255L55.4947 8.04634H55.4715Z" fill="#00A6E3"/>
<path d="M55.4697 8.04696L61.1968 1.30944C61.1968 1.30944 81.8006 -1.04633 104.802 6.84551C107.456 7.76426 109.621 9.31907 104.616 8.73013C98.9354 8.04696 91.8813 7.83494 83.2207 8.56523C71.2077 9.57821 67.3663 14.5018 61.4762 16.7162H61.4529C61.4063 16.7633 59.9164 14.2191 59.4507 13.4417C59.0782 12.8056 58.5428 12.3816 58.5428 12.3816C57.8211 12.4758 48.7182 14.5253 46.7393 15.2321L55.4929 8.07052L55.4697 8.04696Z" fill="#00A6E3"/>
<path d="M55.4942 8.04663L61.1981 1.35623C61.1981 1.35623 81.7087 -0.999542 104.664 6.84518C107.295 7.76394 109.46 9.31875 104.478 8.7298C98.7971 8.04663 91.7895 7.83461 83.1289 8.5649C71.1391 9.57788 67.3443 14.5721 61.4775 16.6923H61.4542C61.4076 16.7394 59.9176 14.2188 59.452 13.4178C59.0795 12.7817 58.5441 12.3577 58.5441 12.3577C57.8223 12.4519 48.766 14.5014 46.7871 15.2082L55.5175 8.07019L55.4942 8.04663Z" fill="#00A6E3"/>
<path d="M55.5177 8.04639L61.2215 1.37955C61.2215 1.37955 81.6856 -0.976226 104.548 6.82138C107.178 7.71658 109.32 9.27139 104.338 8.68245C98.6808 7.99927 91.6732 7.78725 83.0592 8.51754C71.116 9.53053 67.2979 14.2421 61.4776 16.6214H61.4544C61.4078 16.645 59.9178 14.1478 59.4522 13.3704C59.0797 12.7344 58.5442 12.3103 58.5442 12.3103C57.8225 12.4046 48.7662 14.4305 46.8105 15.1373L55.5177 8.02283V8.04639Z" fill="#00A6E3"/>
<path d="M55.5403 8.0466L61.2209 1.42687C61.2209 1.42687 81.6151 -0.928899 104.431 6.79804C107.038 7.69323 109.18 9.22448 104.198 8.63554C98.5637 7.95237 91.5794 7.76391 82.9887 8.49419C71.0921 9.50718 67.3438 14.4779 61.5002 16.5745H61.477C61.4537 16.6216 59.9404 14.1009 59.4748 13.3235C59.1023 12.6875 58.5668 12.287 58.5668 12.287C57.8451 12.3812 48.8121 14.4072 46.8564 15.1139L55.5403 8.0466Z" fill="#00A7E3"/>
<path d="M55.5406 8.04661L61.1979 1.45045C61.1979 1.45045 81.5223 -0.905328 104.268 6.77449C106.875 7.66969 109.017 9.20094 104.035 8.612C98.4244 7.95238 91.44 7.74036 82.8959 8.47065C71.0225 9.48363 67.2743 14.1716 61.5006 16.551H61.4773C61.4307 16.5745 59.9407 14.0774 59.4751 13.3C59.1026 12.6639 58.5671 12.2634 58.5671 12.2634C57.8687 12.3577 48.8589 14.3836 46.9033 15.0904L55.5639 8.04661H55.5406Z" fill="#00A7E3"/>
<path d="M55.565 8.04653L61.2223 1.47392C61.2223 1.47392 81.4769 -0.88185 104.153 6.75086C106.76 7.64605 108.855 9.15375 103.92 8.58836C98.3091 7.92874 91.348 7.71672 82.8272 8.47057C71.0004 9.48355 67.2987 14.4307 61.5017 16.5273H61.4784C61.4551 16.5744 59.9419 14.0773 59.4762 13.2999C59.1037 12.6874 58.5683 12.2634 58.5683 12.2634C57.8466 12.3576 48.8833 14.3836 46.9277 15.0667L55.565 8.04653Z" fill="#00A7E3"/>
<path d="M55.5875 8.04642L61.2215 1.52093C61.2215 1.52093 81.4295 -0.834842 104.012 6.75075C106.596 7.62239 108.692 9.13008 103.756 8.56469C98.1686 7.90508 91.2308 7.71662 82.7332 8.44691C70.953 9.45989 67.2513 14.2186 61.5009 16.4801H61.4776C61.4543 16.5037 59.941 14.0301 59.4754 13.2527C59.1029 12.6402 58.5907 12.2161 58.5675 12.2161C57.869 12.3104 48.9058 14.3363 46.9502 15.0195L55.5642 8.02287L55.5875 8.04642Z" fill="#00A8E3"/>
<path d="M55.5868 8.04641L61.1976 1.54447C61.1976 1.54447 81.3357 -0.811302 103.849 6.72717C106.433 7.59881 108.505 9.08295 103.592 8.54112C98.0282 7.8815 91.0905 7.69304 82.6394 8.42333C70.8825 9.43631 67.2274 14.2892 61.4769 16.433H61.4536C61.4071 16.4565 59.9171 13.983 59.4748 13.2056C59.1023 12.593 58.5901 12.1926 58.5901 12.1926C57.8916 12.2868 48.9284 14.3128 46.9961 14.9959L55.5868 8.04641Z" fill="#00A8E3"/>
<path d="M55.6103 8.0463L61.1977 1.56792C61.1977 1.56792 81.266 -0.787854 103.709 6.70351C106.27 7.57514 108.342 9.05928 103.43 8.49389C97.8887 7.85783 90.9742 7.66937 82.5232 8.39966C70.8128 9.4362 67.1577 14.1477 61.4538 16.4093H61.4305C61.384 16.4328 59.894 13.9593 59.4516 13.2054C59.0791 12.5929 58.567 12.1925 58.567 12.1925C57.8685 12.2867 48.9519 14.2891 47.0195 14.9723L55.6103 8.0463Z" fill="#00A8E3"/>
<path d="M55.6332 8.04628L61.2206 1.61502C61.2206 1.61502 81.2191 -0.740754 103.616 6.70349C106.176 7.57513 108.225 9.03571 103.336 8.49388C97.8185 7.85782 90.904 7.66936 82.4996 8.39965C70.8357 9.43619 67.2272 14.242 61.5233 16.3857H61.5C61.4535 16.4093 59.9635 13.9357 59.5211 13.1819C59.1486 12.5694 58.6364 12.1689 58.6364 12.1689C57.938 12.2631 49.0214 14.2655 47.1123 14.9487L55.6797 8.04628H55.6332Z" fill="#00A9E3"/>
<path d="M55.6565 8.04636L61.2206 1.63865C61.2206 1.63865 81.1493 -0.717121 103.476 6.68001C106.013 7.52809 108.062 8.98867 103.173 8.44684C97.6555 7.81078 90.7876 7.64588 82.4064 8.37617C70.7659 9.41271 67.1573 14.03 61.5 16.3387H61.4767C61.4535 16.3622 59.9402 13.9122 59.4978 13.1584C59.1253 12.5459 58.6132 12.1454 58.6132 12.1454C57.9147 12.2396 49.0446 14.242 47.1123 14.9252L55.6565 8.06991V8.04636Z" fill="#00A9E4"/>
<path d="M55.6576 8.0464L61.1985 1.66226C61.1985 1.66226 81.0573 -0.693516 103.314 6.6565C105.852 7.50458 107.877 8.96516 103.011 8.42333C97.517 7.81083 90.6491 7.62236 82.3144 8.35265C70.7205 9.3892 67.1585 14.1714 61.5012 16.2916H61.4779C61.4313 16.3152 59.9413 13.8652 59.499 13.1113C59.1265 12.5224 58.6143 12.1219 58.6143 12.1219C57.9159 12.2161 49.0458 14.195 47.1367 14.8781L55.6576 8.0464Z" fill="#00AAE4"/>
<path d="M55.6812 8.04661L61.2221 1.70958C61.2221 1.70958 81.0343 -0.646197 103.198 6.6567C105.712 7.50478 107.738 8.9418 102.872 8.39997C97.4009 7.78747 90.5563 7.62257 82.2449 8.35286C70.6975 9.3894 67.1355 13.9832 61.5015 16.2683H61.4782C61.4549 16.2918 59.9416 13.8418 59.4993 13.088C59.1268 12.499 58.6146 12.0985 58.6146 12.0985C57.9162 12.1928 49.0926 14.1716 47.1836 14.8548L55.6812 8.04661Z" fill="#00AAE4"/>
<path d="M55.7037 8.04652L61.2213 1.73304C61.2213 1.73304 80.9636 -0.622731 103.057 6.60949C105.572 7.45757 107.574 8.87104 102.731 8.35277C97.2837 7.74026 90.439 7.57536 82.151 8.30565C70.6268 9.34219 67.1347 14.1009 61.5006 16.1975H61.4774C61.4541 16.2211 59.9641 13.771 59.4985 13.0408C59.126 12.4518 58.6138 12.0513 58.6138 12.0513C57.9154 12.1456 49.1151 14.1244 47.2061 14.8076L55.6804 8.04652H55.7037Z" fill="#00AAE4"/>
<path d="M55.7266 8.04644L61.2209 1.75652C61.2209 1.75652 80.8934 -0.622811 102.941 6.58586C105.455 7.41038 107.434 8.8474 102.615 8.30557C97.1669 7.71663 90.3456 7.52816 82.1041 8.28201C70.6265 9.31855 67.1343 13.9594 61.5468 16.1739H61.5236C61.5003 16.1974 59.987 13.771 59.5447 13.0171C59.1955 12.4282 58.66 12.0277 58.66 12.0277C57.9848 12.1219 49.1846 14.1008 47.2988 14.7839L55.7499 8.04644H55.7266Z" fill="#00ABE4"/>
<path d="M55.7277 8.04694L61.2221 1.80414C61.2221 1.80414 80.8247 -0.55163 102.802 6.58636C105.293 7.41088 107.295 8.82435 102.453 8.30608C97.0284 7.71713 90.2303 7.55223 82.0121 8.28252C70.5578 9.31906 67.1122 14.0777 61.5247 16.1508H61.5014C61.4549 16.1744 59.9649 13.7479 59.5225 13.0176C59.1733 12.4287 58.6611 12.0282 58.6611 12.0282C57.9627 12.1224 49.209 14.1013 47.3232 14.7609L55.751 8.04694H55.7277Z" fill="#00ABE4"/>
<path d="M55.7492 8.04694L61.2203 1.8277C61.2203 1.8277 80.7531 -0.551631 102.661 6.56281C105.152 7.38733 107.107 8.77723 102.311 8.28252C96.9102 7.69358 90.1121 7.52867 81.9171 8.28252C70.5094 9.31906 67.1104 14.1013 61.5229 16.1272H61.4996C61.4763 16.1508 59.9864 13.7244 59.5207 12.9941C59.1715 12.4051 58.6593 12.0282 58.6593 12.0282C57.9842 12.1224 49.2305 14.0777 47.3447 14.7609L55.7492 8.0705V8.04694Z" fill="#00ABE4"/>
<path d="M55.7738 8.04646L61.2215 1.85077C61.2215 1.85077 80.7078 -0.52856 102.522 6.53876C104.99 7.33972 106.946 8.72963 102.15 8.23492C96.7718 7.64598 89.997 7.50463 81.8253 8.23492C70.4641 9.27146 67.0651 13.983 61.5242 16.0561H61.5009C61.4776 16.0796 59.9876 13.6532 59.5453 12.9229C59.1961 12.334 58.6839 11.957 58.6839 11.957C58.0088 12.0513 49.2783 14.0066 47.3926 14.6897L55.7738 8.04646Z" fill="#00ACE5"/>
<path d="M55.7741 8.04674L61.2219 1.89817C61.2219 1.89817 80.6383 -0.48116 102.383 6.53904C104.851 7.34001 106.783 8.72991 102.01 8.2352C96.6557 7.66982 89.8809 7.50491 81.7558 8.2352C70.4412 9.27174 67.0654 13.9833 61.5245 16.0328H61.5012C61.4547 16.0564 59.988 13.6535 59.5456 12.9232C59.1964 12.3342 58.6842 11.9573 58.6842 11.9573C58.0091 12.0516 49.3019 14.0068 47.4395 14.6665L55.7974 8.04674H55.7741Z" fill="#00ACE5"/>
<path d="M55.7975 8.04645L61.222 1.92144C61.222 1.92144 80.5686 -0.457893 102.243 6.5152C104.688 7.31616 106.643 8.68251 101.848 8.1878C96.5161 7.62241 89.7413 7.45751 81.6628 8.1878C70.3715 9.22434 67.0423 13.9359 61.5247 15.9854H61.5014C61.4548 16.009 59.9881 13.6061 59.5458 12.8758C59.1966 12.2868 58.6844 11.9335 58.6844 11.9335C58.0092 12.0277 49.3254 13.983 47.4629 14.6426L55.7975 8.04645Z" fill="#00ADE5"/>
<path d="M55.821 8.04693L61.2222 1.94548C61.2222 1.94548 80.4989 -0.433855 102.127 6.49212C104.572 7.29308 106.481 8.63587 101.731 8.14116C96.3999 7.57578 89.6717 7.43443 81.5931 8.16472C70.3484 9.20126 67.0192 13.8186 61.5248 15.9388H61.5015C61.4783 15.9623 59.9883 13.5594 59.5459 12.8527C59.1967 12.2873 58.6845 11.9104 58.6845 11.9104C58.0094 12.0046 49.3488 13.9364 47.4863 14.596L55.7977 8.04693H55.821Z" fill="#00AEE6"/>
<path d="M55.8428 8.04638L61.244 1.96848C61.244 1.96848 80.4509 -0.410849 102.009 6.44445C104.454 7.22186 106.339 8.58821 101.613 8.09349C96.3053 7.52811 89.5771 7.38676 81.5451 8.11705C70.3236 9.15359 67.0177 13.6531 61.5699 15.8675H61.5466C61.5233 15.8911 60.0333 13.4882 59.591 12.7815C59.2418 12.2161 58.7296 11.8392 58.7296 11.8392C58.0545 11.9334 49.4172 13.8651 47.5547 14.5248L55.866 7.99926L55.8428 8.04638Z" fill="#05AEE6"/>
<path d="M55.8428 8.04683L61.2207 2.01605C61.2207 2.01605 80.3577 -0.363277 101.846 6.44491C104.267 7.22231 106.153 8.56511 101.427 8.09395C96.1423 7.55212 89.4374 7.38722 81.4287 8.14107C70.2537 9.17761 66.9944 13.842 61.5233 15.868H61.5001C61.4535 15.8916 59.9868 13.4887 59.5444 12.8055C59.1952 12.2401 58.683 11.8632 58.683 11.8632C58.0079 11.9574 49.3939 13.8892 47.5547 14.5488L55.8428 8.04683Z" fill="#0FAEE6"/>
<path d="M55.8672 8.04666L61.2218 2.03944C61.2218 2.03944 80.3123 -0.339896 101.708 6.42118C104.129 7.19858 105.991 8.51781 101.289 8.04666C96.027 7.50483 89.3221 7.36348 81.3367 8.11733C70.2083 9.15387 66.9257 13.5592 61.5245 15.8207H61.5012C61.4546 15.8443 59.9879 13.4414 59.5456 12.7582C59.1964 12.1928 58.7075 11.8159 58.6842 11.8159C58.0323 11.9101 49.4183 13.8419 47.5791 14.5015L55.8439 8.04666H55.8672Z" fill="#0FAEE6"/>
<path d="M55.8898 8.0464L61.2212 2.06274C61.2212 2.06274 80.2418 -0.316595 101.567 6.39736C103.965 7.17477 105.828 8.494 101.125 8.02284C95.8634 7.48102 89.205 7.33967 81.2429 8.09352C70.1378 9.13006 66.925 13.7003 61.5238 15.7969H61.5005C61.454 15.8205 59.9873 13.4411 59.5449 12.7344C59.1957 12.169 58.7068 11.8156 58.7068 11.8156C58.0316 11.9099 49.4642 13.8416 47.625 14.4777L55.8665 8.0464H55.8898Z" fill="#0FAEE6"/>
<path d="M55.9137 8.04619L61.2451 2.10964C61.2451 2.10964 80.1959 -0.269694 101.475 6.39715C103.873 7.15099 105.712 8.47023 101.032 7.99907C95.7942 7.45724 89.1358 7.33945 81.2202 8.06974C70.1617 9.10629 66.9256 13.488 61.571 15.7496H61.5477C61.5244 15.7731 60.0344 13.3938 59.5921 12.7106C59.2429 12.1452 58.754 11.7919 58.754 11.7919C58.0788 11.8625 49.5347 13.7943 47.7188 14.4539L55.937 8.04619H55.9137Z" fill="#16AFE6"/>
<path d="M55.9148 8.04687L61.2229 2.13388C61.2229 2.13388 80.1272 -0.245456 101.313 6.37427C103.688 7.12812 105.55 8.42379 100.871 7.97619C95.6556 7.45792 88.9972 7.31658 81.1282 8.07042C70.093 9.10696 66.9501 13.7243 61.5721 15.7267H61.5488C61.5256 15.7502 60.0356 13.3709 59.5932 12.6877C59.244 12.1459 58.7551 11.769 58.7551 11.769C58.1032 11.8632 49.5591 13.7714 47.7432 14.4075L55.9381 8.04687H55.9148Z" fill="#1BAFE6"/>
<path d="M55.9363 8.0466L61.2211 2.15717C61.2211 2.15717 80.0555 -0.198604 101.171 6.35045C103.546 7.10429 105.362 8.37641 100.706 7.92881C95.5142 7.41054 88.879 7.29275 81.01 8.02304C70.0214 9.05958 66.8551 13.4178 61.547 15.6558H61.5238C61.5005 15.6793 60.0105 13.3 59.5914 12.6168C59.2422 12.075 58.7533 11.7216 58.7533 11.7216C58.1015 11.8158 49.5806 13.724 47.7646 14.3601L55.9363 8.02304V8.0466Z" fill="#20AFE6"/>
<path d="M55.9601 8.04677L61.2449 2.20446C61.2449 2.20446 79.9861 -0.174876 101.056 6.32706C103.407 7.08091 105.246 8.35302 100.59 7.90543C95.4215 7.38716 88.7864 7.26937 80.964 8.02322C70.0218 9.08331 66.9022 13.5828 61.5708 15.6324H61.5475C61.5242 15.6559 60.0343 13.3001 59.6152 12.617C59.266 12.0751 58.7771 11.7218 58.7771 11.7218C58.1252 11.816 49.6276 13.7242 47.835 14.3602L55.9833 8.04677H55.9601Z" fill="#24B0E6"/>
<path d="M55.9592 8.04673L61.2208 2.22797C61.2208 2.22797 79.9155 -0.151364 100.915 6.32701C103.266 7.0573 105.082 8.32942 100.426 7.88182C95.2577 7.38711 88.6692 7.24577 80.87 7.99961C69.9745 9.05971 66.8781 13.6299 61.57 15.6088H61.5467C61.5234 15.6323 60.0334 13.2765 59.6144 12.5934C59.2652 12.0515 58.7763 11.6982 58.7763 11.6982C58.1244 11.7689 49.6501 13.677 47.8574 14.3366L55.9825 8.04673H55.9592Z" fill="#2CB1E7"/>
<path d="M55.9827 8.04635L61.2209 2.2747C61.2209 2.2747 79.8458 -0.128186 100.775 6.30308C103.127 7.03337 104.92 8.28193 100.287 7.85789C95.1415 7.36317 88.5529 7.24539 80.8003 7.97568C69.928 9.03577 66.8782 13.606 61.5701 15.5613H61.5469C61.5236 15.5848 60.0336 13.2291 59.6145 12.5694C59.2653 12.0276 58.7764 11.6742 58.7764 11.6742C58.1245 11.7685 49.6735 13.6531 47.8809 14.2891L55.9827 8.04635Z" fill="#2DB2E7"/>
<path d="M56.0061 8.04691L61.2444 2.29882C61.2444 2.29882 79.7994 -0.0805075 100.636 6.28008C102.964 7.01037 104.757 8.25893 100.124 7.81133C95.0019 7.31662 88.4134 7.19883 80.6841 7.95268C69.8584 9.01278 66.8318 13.5594 61.547 15.5147H61.5237C61.5005 15.5383 60.0105 13.1825 59.5914 12.5229C59.2422 11.9811 58.7533 11.6277 58.7533 11.6512C58.1014 11.7455 49.6737 13.6301 47.9043 14.2662L55.9828 8.04691H56.0061Z" fill="#31B2E8"/>
<path d="M56.03 8.04617L61.245 2.32164C61.245 2.32164 79.7302 -0.0576867 100.52 6.25579C102.848 6.96252 104.618 8.21108 100.008 7.78704C94.8862 7.31588 88.3442 7.1981 80.6381 7.95194C69.859 9.01204 66.8324 13.5587 61.5942 15.4904H61.5709C61.5476 15.514 60.0577 13.1818 59.6386 12.5221C59.2894 11.9803 58.8238 11.6505 58.8238 11.6505C58.1719 11.7447 49.7674 13.6294 47.998 14.2419L56.0766 8.04617H56.03Z" fill="#34B3E8"/>
<path d="M56.03 8.04634L61.2217 2.36893C61.2217 2.36893 79.6603 -0.0104046 100.38 6.25595C102.685 6.96269 104.455 8.18769 99.845 7.78721C94.7465 7.31605 88.2045 7.19826 80.545 7.95211C69.7891 9.01221 66.8092 13.4646 61.5709 15.467H61.5476C61.5244 15.4906 60.0344 13.1584 59.6153 12.4988C59.2661 11.9805 58.8005 11.6271 58.8005 11.6271C58.1486 11.7213 49.7674 13.606 47.998 14.2185L56.0533 8.0699L56.03 8.04634Z" fill="#34B3E8"/>
<path d="M56.0536 8.04634L61.2453 2.39249C61.2453 2.39249 79.5908 -0.0104032 100.241 6.2324C102.546 6.93913 104.292 8.14057 99.7057 7.74009C94.6304 7.26894 88.1117 7.17471 80.4755 7.905C69.7662 8.96509 66.8095 13.4882 61.5945 15.4199H61.5712C61.5479 15.4435 60.058 13.1113 59.6389 12.4516C59.2897 11.9334 58.8241 11.58 58.8241 11.58C58.1722 11.6742 49.8143 13.5353 48.0449 14.1714L56.0769 8.04634H56.0536Z" fill="#34B3E8"/>
<path d="M56.0769 8.04694L61.2453 2.41664C61.2453 2.41664 79.5209 0.0373101 100.101 6.20944C102.383 6.91617 104.129 8.11761 99.5427 7.71713C94.4907 7.24598 87.972 7.15175 80.3591 7.90559C69.6731 8.96569 66.7396 13.3945 61.5479 15.397H61.5247C61.5014 15.4205 60.0114 13.0883 59.5923 12.4522C59.2664 11.934 58.7775 11.5806 58.7775 11.5806C58.1489 11.6513 49.791 13.5359 48.0449 14.1484L56.0536 8.04694H56.0769Z" fill="#36B3E8"/>
<path d="M56.0987 8.0464L61.2438 2.43966C61.2438 2.43966 79.4729 0.0603268 99.9603 6.18534C102.242 6.86851 103.965 8.06996 99.4015 7.66947C94.3728 7.22188 87.8774 7.10409 80.2877 7.85794C69.6483 8.91804 66.7381 13.3469 61.5697 15.3257H61.5465C61.5232 15.3493 60.0332 13.0406 59.6374 12.381C59.2882 11.8628 58.8226 11.5329 58.8226 11.5329C58.1707 11.6036 49.8594 13.4882 48.1133 14.1007L56.0987 8.0464Z" fill="#3CB4E8"/>
<path d="M56.1003 8.047L61.2221 2.48737C61.2221 2.48737 79.4047 0.10804 99.8455 6.16238C102.104 6.84555 103.827 8.02344 99.2867 7.62296C94.2813 7.17536 87.7859 7.08113 80.2428 7.83498C69.6499 8.89508 66.763 13.3004 61.6179 15.2792H61.5946C61.5714 15.3028 60.0814 12.9941 59.6856 12.3345C59.3596 11.8162 58.8707 11.4864 58.8707 11.4864C58.2422 11.5571 49.9541 13.4417 48.208 14.0542L56.1701 8.02344L56.1003 8.047Z" fill="#3BB4E8"/>
<path d="M56.1234 8.04627L61.2453 2.5102C61.2453 2.5102 79.3347 0.130868 99.7056 6.16165C101.964 6.84482 103.663 8.02271 99.1236 7.62223C94.1182 7.17463 87.646 7.0804 80.1262 7.83425C69.5799 8.89435 66.7163 13.2996 61.5712 15.2549H61.5479C61.5246 15.2785 60.0346 12.9698 59.6389 12.3338C59.3129 11.8155 58.824 11.4857 58.824 11.4857C58.1954 11.5799 49.9074 13.4174 48.1846 14.0535L56.1234 8.04627Z" fill="#3EB5E9"/>
<path d="M56.1451 8.0468L61.2436 2.53429C61.2436 2.53429 79.2865 0.154956 99.5643 6.13862C101.799 6.82179 103.499 7.97612 98.9823 7.5992C94.0001 7.1516 87.5512 7.05737 80.0547 7.81122C69.5317 8.87132 66.7147 13.2766 61.5928 15.2319H61.5696C61.5463 15.2555 60.0796 12.9468 59.6605 12.3107C59.3346 11.816 58.8457 11.4862 58.8457 11.4862C58.2171 11.5569 49.9756 13.418 48.2295 14.0305L56.1451 8.07035V8.0468Z" fill="#40B5E9"/>
<path d="M56.1687 8.04684L61.2439 2.58145C61.2439 2.58145 79.2169 0.202115 99.4482 6.11511C101.683 6.77472 103.359 7.92905 98.8429 7.55213C93.884 7.12809 87.4584 7.03386 79.9852 7.78771C69.5087 8.8478 66.6917 13.2295 61.5932 15.1848C61.5699 15.2084 60.0799 12.8997 59.6841 12.2872C59.3582 11.7925 58.8693 11.4627 58.8693 11.4627C58.2407 11.5334 49.9992 13.3944 48.2764 14.0069L56.1687 8.0704V8.04684Z" fill="#44B6E9"/>
<path d="M56.169 8.04659L61.2442 2.60476C61.2442 2.60476 79.1474 0.225425 99.3088 6.0913C101.544 6.75092 103.197 7.88169 98.7035 7.52832C93.7679 7.10428 87.3423 7.01005 79.9157 7.7639C69.4858 8.824 66.692 13.2057 61.6167 15.1375H61.5935C61.5702 15.161 60.1035 12.8759 59.6844 12.2399C59.3585 11.7452 58.8929 11.4153 58.8696 11.4153C58.241 11.486 50.046 13.3471 48.3232 13.936L56.1923 8.02303L56.169 8.04659Z" fill="#46B7E9"/>
<path d="M56.1934 8.0464L61.2454 2.62812C61.2454 2.62812 79.0787 0.24879 99.1703 6.06755C101.382 6.72717 103.035 7.85794 98.5417 7.48102C93.6294 7.05698 87.2038 6.9863 79.8004 7.74015C69.3938 8.80025 65.4593 11.6979 60.4073 13.6296H60.384C60.7798 13.4411 62.7819 16.9748 59.6623 12.2161C59.3363 11.7214 58.8707 11.3916 58.8707 11.3916C58.2421 11.4623 50.0705 13.2998 48.3477 13.9123L56.1934 8.02284V8.0464Z" fill="#48B7E9"/>
<path d="M56.2149 8.04627L61.2436 2.6751C61.2436 2.6751 79.007 0.295773 99.0288 6.06742C101.24 6.70348 102.87 7.83425 98.4002 7.48088C93.4879 7.0804 87.1089 6.98617 79.7288 7.74002C69.3687 8.80012 65.4575 11.6742 60.4055 13.6059H60.3822C60.3589 13.6295 60.0562 12.8285 59.6605 12.1924C59.3345 11.6977 58.8689 11.3679 58.8689 11.3679C58.2403 11.4386 50.0919 13.2761 48.3691 13.8886L56.1916 8.04627H56.2149Z" fill="#4AB7EA"/>
<path d="M56.2163 8.04635L61.245 2.69874C61.245 2.69874 78.9619 0.295851 98.8905 6.04394C101.079 6.68 102.709 7.78721 98.262 7.43384C93.3729 7.03336 86.9939 6.96269 79.6604 7.71654C69.3236 8.77664 65.4356 11.5564 60.4302 13.5589H60.4069C60.3836 13.5824 60.081 12.7815 59.6852 12.1689C59.3593 11.6742 58.8936 11.3444 58.8936 11.368C58.2883 11.4387 50.1399 13.2762 48.4404 13.8651L56.2396 8.04635H56.2163Z" fill="#4EB8EA"/>
<path d="M56.2378 8.04709L61.2432 2.72304C61.2432 2.72304 78.8903 0.34371 98.7491 6.02113C100.937 6.65718 102.544 7.7644 98.0972 7.41103C93.2314 7.01055 86.8524 6.93988 79.5654 7.69372C69.2752 8.75382 65.4105 11.5336 60.4284 13.5125H60.4051C60.3818 13.536 60.0792 12.7351 59.6834 12.1226C59.3575 11.6279 58.8918 11.3216 58.8918 11.3216C58.2632 11.3923 50.1382 13.2298 48.4619 13.8187L56.2378 8.02353V8.04709Z" fill="#4EB8EA"/>
<path d="M56.2622 8.04616L61.2444 2.76923C61.2444 2.76923 78.8216 0.389895 98.6338 6.02019C100.799 6.65625 102.405 7.73991 97.9819 7.38654C93.1394 7.00962 86.7837 6.91539 79.4967 7.69279C69.2531 8.75289 65.4117 11.6034 60.4295 13.488H60.4062C60.383 13.5116 60.0803 12.7106 59.6845 12.1216C59.3586 11.6505 58.893 11.3207 58.893 11.3207C58.2877 11.3914 50.1858 13.2289 48.4863 13.8178L56.2622 8.06972V8.04616Z" fill="#51B8EA"/>
<path d="M56.2858 8.04667L61.268 2.79329C61.268 2.79329 78.7753 0.390402 98.5177 5.99714C100.683 6.6332 102.266 7.6933 97.8426 7.36349C93.0234 6.98657 86.6676 6.91589 79.4272 7.66974C69.2068 8.72984 65.3887 11.4861 60.4531 13.4414H60.4298C60.4066 13.4649 60.1272 12.6875 59.7081 12.075C59.3822 11.5803 58.9166 11.2741 58.9166 11.2741C58.288 11.3447 50.2327 13.1587 48.5332 13.7476L56.2625 8.02311L56.2858 8.04667Z" fill="#53B8EA"/>
<path d="M56.2861 8.04643L61.245 2.81661C61.245 2.81661 78.6825 0.437284 98.355 5.97335C100.52 6.58585 102.08 7.64595 97.6799 7.31614C92.8607 6.93922 86.5515 6.86855 79.3344 7.62239C69.1606 8.70605 65.3657 11.4387 60.4534 13.394H60.4302C60.4069 13.4176 60.1275 12.6402 59.7084 12.0277C59.3825 11.5565 58.9169 11.2503 58.9169 11.2503C58.3116 11.321 50.2563 13.1349 48.5801 13.7238L56.3094 8.02287L56.2861 8.04643Z" fill="#54B9EA"/>
<path d="M56.3094 8.04647L61.245 2.86377C61.245 2.86377 78.6127 0.484437 98.2154 5.94983C100.357 6.56233 101.917 7.62243 97.5169 7.29262C92.721 6.9157 86.4118 6.86858 79.218 7.62243C69.0907 8.70609 65.3425 11.6272 60.4069 13.3705H60.3836C60.3603 13.3941 60.0809 12.6167 59.6619 12.0277C59.3359 11.5566 58.8936 11.2503 58.8936 11.2503C58.2883 11.321 50.2563 13.1349 48.5801 13.7239L56.2861 8.07003L56.3094 8.04647Z" fill="#56B9EA"/>
<path d="M56.3322 8.04643L61.2445 2.88729C61.2445 2.88729 78.5656 0.484401 98.0752 5.92624C100.217 6.53874 101.754 7.57528 97.3767 7.26903C92.6041 6.91566 86.3182 6.84499 79.1476 7.59884C69.0436 8.68249 65.2721 11.2032 60.4296 13.3234H60.4064C60.3831 13.3469 60.1037 12.5695 59.7079 11.9806C59.382 11.5094 58.9397 11.2032 58.9164 11.2032C58.3111 11.2738 50.3024 13.0642 48.6494 13.6532L56.3322 8.02288V8.04643Z" fill="#5ABAEA"/>
<path d="M56.3569 8.04687L61.2692 2.91129C61.2692 2.91129 78.5205 0.508398 97.9835 5.90312C100.102 6.49206 101.639 7.5286 97.2618 7.22235C92.5124 6.86899 86.2265 6.82187 79.1025 7.57572C69.0451 8.65938 65.3667 11.6041 60.4544 13.2767H60.4311C60.4078 13.3003 60.1284 12.5228 59.7327 11.9339C59.4067 11.4627 58.9644 11.1565 58.9644 11.1565C58.3591 11.2272 50.3737 13.0176 48.7207 13.6065L56.3802 7.99976L56.3569 8.04687Z" fill="#5DBBEB"/>
<path d="M56.3551 8.04687L61.2441 2.9584C61.2441 2.9584 78.4256 0.579068 97.8187 5.90312C99.9373 6.49206 101.451 7.5286 97.097 7.22235C92.3477 6.86898 86.085 6.82187 79.0076 7.57571C68.9967 8.65937 65.295 11.2507 60.4526 13.2767H60.4293C60.406 13.3002 60.1266 12.5464 59.7309 11.9575C59.4049 11.4863 58.9626 11.18 58.9626 11.2036C58.3573 11.2743 50.3951 13.0647 48.7422 13.6536L56.3784 8.09399L56.3551 8.04687Z" fill="#5FBCEB"/>
<path d="M56.3795 8.04705L61.2453 2.98213C61.2453 2.98213 78.3569 0.579242 97.6802 5.87973C99.7755 6.46868 101.289 7.48166 96.9352 7.17541C92.2091 6.82204 85.9698 6.77493 78.9156 7.55233C68.928 8.63599 65.2962 11.51 60.4537 13.2297H60.4304C60.4071 13.2533 60.1278 12.4995 59.732 11.9105C59.4061 11.4394 58.9637 11.1567 58.9637 11.1567C58.3584 11.2273 50.4196 13.0177 48.7666 13.6067L56.3795 8.0706V8.04705Z" fill="#60BCEB"/>
<path d="M56.4031 8.0469L61.2689 3.00554C61.2689 3.00554 78.3106 0.602655 97.5641 5.85603C99.6594 6.42142 101.149 7.4344 96.8191 7.1517C92.1163 6.8219 85.877 6.77478 78.8461 7.52863C68.9051 8.61228 65.2499 11.1801 60.454 13.1825H60.4307C60.4075 13.206 60.1281 12.4522 59.7323 11.8868C59.4064 11.4157 58.964 11.133 58.964 11.133C58.3587 11.2036 50.4432 12.994 48.8135 13.5594L56.4031 8.0469Z" fill="#62BCEB"/>
<path d="M56.4023 8.04664L61.2448 3.05239C61.2448 3.05239 78.2167 0.649506 97.4003 5.83221C99.4723 6.39759 100.962 7.41058 96.6553 7.10433C91.9758 6.77452 85.7597 6.7274 78.7521 7.48125C68.8577 8.5649 65.2724 11.4625 60.4532 13.1115H60.4299C60.4066 13.1351 60.1273 12.3813 59.7315 11.8159C59.4056 11.3683 58.9632 11.062 58.9632 11.062C58.3579 11.1327 50.4656 12.9231 48.8359 13.4885L56.4023 8.02308V8.04664Z" fill="#64BDEB"/>
<path d="M56.4249 8.04658L61.2441 3.0759C61.2441 3.0759 78.1694 0.673013 97.2599 5.83216C99.332 6.39754 100.799 7.38697 96.4917 7.10428C91.8122 6.77447 85.6194 6.72735 78.6583 7.50476C68.7872 8.58841 65.2252 11.2976 60.4293 13.1115C60.406 13.1351 60.1266 12.3812 59.7308 11.8394C59.4049 11.3918 58.9625 11.0855 58.9625 11.1091C58.3805 11.1798 50.4882 12.9466 48.8818 13.512L56.4249 8.07014V8.04658Z" fill="#64BDEB"/>
<path d="M56.4496 8.04673L61.2688 3.0996C61.2688 3.0996 78.1243 0.696711 97.1683 5.78518C99.2403 6.35057 100.684 7.31644 96.4 7.03374C91.7438 6.72749 85.5743 6.68038 78.6132 7.43422C68.7886 8.51788 65.2499 11.3448 60.4773 13.041C60.454 13.0645 60.1746 12.3342 59.7788 11.7688C59.4529 11.3213 59.0106 11.0386 59.0106 11.0386C58.4285 11.1092 50.5595 12.8761 48.9531 13.4414L56.4729 8.02317L56.4496 8.04673Z" fill="#65BDEB"/>
<path d="M56.4711 8.04669L61.267 3.14668C61.267 3.14668 78.0527 0.743793 97.0268 5.80871C99.0755 6.35053 100.519 7.3164 96.2352 7.05727C91.6023 6.75102 85.4328 6.7039 78.5183 7.48131C68.7403 8.56496 65.2015 11.1799 60.4755 13.0645H60.4522C60.4289 13.088 60.1495 12.3578 59.7538 11.7924C59.4511 11.3448 59.0088 11.0621 59.0088 11.0621C58.4267 11.1328 50.581 12.8996 48.9746 13.465L56.4711 8.09381V8.04669Z" fill="#67BEEC"/>
<path d="M56.4711 8.04707L61.2437 3.17061C61.2437 3.17061 77.9596 0.767724 96.8638 5.76196C98.9125 6.30379 100.333 7.26966 96.0723 6.98697C91.4626 6.68072 85.3164 6.65716 78.4252 7.41101C68.6704 8.49466 65.2015 11.298 60.4522 12.9706C60.4289 12.9942 60.1495 12.2639 59.7538 11.7221C59.4511 11.2745 59.0088 10.9918 58.9855 10.9918C58.4035 11.0625 50.581 12.8057 48.9746 13.3711L56.4711 8.02351V8.04707Z" fill="#68BEEC"/>
<path d="M56.496 8.0465L61.2686 3.1936C61.2686 3.1936 77.9146 0.790715 96.749 5.73784C98.7745 6.27967 100.195 7.22198 95.9342 6.96284C91.3478 6.65659 85.2016 6.63303 78.3569 7.41044C68.6487 8.4941 65.1566 10.9912 60.4771 12.9465C60.4538 12.9701 60.1744 12.2398 59.8019 11.6979C59.4993 11.2503 59.0569 10.9677 59.0569 10.9677C58.4749 11.0383 50.6757 12.7816 49.0693 13.347L56.5426 8.02294L56.496 8.0465Z" fill="#6ABEEC"/>
<path d="M56.5193 8.04675L61.2686 3.24097C61.2686 3.24097 77.868 0.838081 96.6093 5.73809C98.6348 6.27992 100.032 7.19867 95.7945 6.93953C91.2081 6.65684 85.0852 6.63328 78.2638 7.38713C68.5789 8.47079 65.1799 11.2506 60.4538 12.8996H60.4305C60.4072 12.9232 60.1279 12.2165 59.7554 11.6746C59.4527 11.2506 59.0104 10.9679 59.0104 10.9679C58.4283 11.0386 50.6524 12.7819 49.0693 13.3472L56.5193 8.04675Z" fill="#6BBFEC"/>
<path d="M56.5411 8.04635L61.2671 3.26413C61.2671 3.26413 77.7967 0.861237 96.4914 5.71413C98.4936 6.25596 99.8905 7.17471 95.6766 6.91558C91.1135 6.63288 85.0138 6.60933 78.2158 7.38673C68.5774 8.47039 65.1551 11.0382 60.4989 12.8757H60.4756C60.4523 12.8992 60.1729 12.1925 59.8004 11.6507C59.4978 11.2266 59.0554 10.9439 59.0554 10.9439C58.4734 11.0146 50.7208 12.7579 49.1377 13.2997L56.5644 8.04635H56.5411Z" fill="#6DC0EC"/>
<path d="M56.5422 8.04689L61.245 3.28822C61.245 3.28822 77.7047 0.885333 96.3296 5.69111C98.3318 6.20938 99.7053 7.12813 95.4915 6.869C90.9517 6.58631 84.852 6.56275 78.1005 7.34015C68.5087 8.44737 65.1329 11.1801 60.4767 12.8291H60.4534C60.4302 12.8527 60.1508 12.1459 59.7783 11.6041C59.4756 11.1801 59.0333 10.8974 59.0333 10.8974C58.4513 10.968 50.7219 12.7113 49.1621 13.2531L56.5655 8.02333L56.5422 8.04689Z" fill="#6EC0EC"/>
<path d="M56.5658 8.0466L61.2686 3.33505C61.2686 3.33505 77.6585 0.93216 96.2135 5.69082C98.2157 6.20909 99.566 7.10429 95.3754 6.86871C90.8588 6.60957 84.7825 6.58602 78.0543 7.36342C68.4857 8.44708 65.1332 11.0149 60.5003 12.8288H60.477C60.4538 12.8288 60.1744 12.1456 59.8019 11.6274C59.4992 11.2033 59.0569 10.9442 59.0569 10.9442C58.4749 11.0149 50.7688 12.7346 49.209 13.3L56.5891 8.09371L56.5658 8.0466Z" fill="#6FC1ED"/>
<path d="M56.5878 8.04639L61.2673 3.3584C61.2673 3.3584 77.5873 0.955515 96.0725 5.66706C98.0514 6.18533 99.4017 7.08053 95.2111 6.82139C90.7178 6.56226 84.6415 6.5387 77.9365 7.3161C68.4146 8.39976 65.0854 11.0618 60.4757 12.7579C60.4524 12.7815 60.1731 12.0748 59.8006 11.5565C59.4979 11.1325 59.0556 10.8733 59.0556 10.8733C58.4735 10.944 53.1887 12.4046 51.6289 12.9464L56.5878 8.04639Z" fill="#71C1ED"/>
<path d="M56.5879 8.0464L61.2442 3.38197C61.2442 3.38197 77.5176 0.979083 95.9097 5.64351C97.8886 6.13823 99.2156 7.03342 95.0483 6.79784C90.555 6.53871 84.502 6.53871 77.8436 7.29256C68.3682 8.39977 65.0623 11.1089 60.4759 12.7108H60.4526C60.4293 12.7344 60.1499 12.0512 59.7774 11.5094C59.4748 11.0854 59.0557 10.8262 59.0557 10.8262C58.4737 10.8969 53.2122 12.3339 51.6523 12.8993L56.5879 8.02285V8.0464Z" fill="#71C1ED"/>
<path d="M56.6114 8.04653L60.2199 3.31143C61.2443 3.17008 79.2173 1.47392 95.7934 5.62009C97.7491 6.1148 99.0761 6.98643 94.9088 6.75086C90.4388 6.49172 84.409 6.49172 77.7739 7.26913C68.3218 8.37634 65.0624 11.0619 60.476 12.6874H60.4528C60.4295 12.711 60.1501 12.0278 59.7776 11.5095C59.4749 11.0855 59.0559 10.8263 59.0559 10.8263C58.4971 10.897 53.2356 12.334 51.6758 12.8994L56.5881 8.07009L56.6114 8.04653Z" fill="#73C2ED"/>
<path d="M56.6351 8.04676L60.2204 3.33521C61.2215 3.19387 79.1712 1.49771 95.6775 5.59675C97.6331 6.09147 98.9369 6.93955 94.7928 6.72753C90.3461 6.49195 84.3163 6.46839 77.7278 7.2458C68.3222 8.35301 65.0862 11.0386 60.4998 12.6405C60.4765 12.6641 60.1971 11.9809 59.8246 11.4626C59.522 11.0621 59.1029 10.7795 59.1029 10.7795C58.5442 10.8501 53.3059 12.2872 51.7461 12.829L56.6584 8.0232L56.6351 8.04676Z" fill="#74C2ED"/>
<path d="M56.6595 8.04664L60.2215 3.35865C61.2226 3.2173 79.1258 1.49759 95.5389 5.57308C97.4713 6.06779 98.775 6.91587 94.631 6.70385C90.2076 6.46827 84.2011 6.46827 77.6125 7.24567C68.2535 8.35289 65.0174 10.9442 60.4776 12.6168C60.4544 12.6404 60.175 11.9572 59.8025 11.4625C59.4998 11.062 59.0808 10.8029 59.0808 10.8029C58.522 10.8736 53.3071 12.3106 51.7705 12.8524L56.6595 8.0702V8.04664Z" fill="#75C3ED"/>
<path d="M56.6581 8.04649L60.2201 3.40561C61.1979 3.26427 79.0545 1.56811 95.3978 5.57293C97.3301 6.04408 98.6106 6.89216 94.4898 6.68014C90.0897 6.44456 84.0832 6.44456 77.5412 7.22197C68.2055 8.32918 65.016 10.9205 60.4994 12.5696C60.4761 12.5931 60.1968 11.9335 59.8476 11.4152C59.5449 11.0148 59.1258 10.7556 59.1258 10.7556C58.5671 10.8263 53.3754 12.2633 51.8389 12.7816L56.7046 8.02293L56.6581 8.04649Z" fill="#77C3EE"/>
<path d="M56.6825 8.04681L60.2212 3.4295C60.2212 3.4295 77.1931 1.1444 95.2592 5.54969C97.1683 6.02085 98.4487 6.84537 94.3513 6.65691C89.9511 6.42133 83.9912 6.44489 77.4725 7.19873C68.1833 8.30595 65.0171 10.9444 60.5238 12.5228H60.5006C60.4773 12.5463 60.2212 11.8867 59.8487 11.392C59.546 10.9915 59.127 10.7324 59.127 10.7324C58.5682 10.8031 53.3998 12.2401 51.8633 12.7584L56.7057 8.04681H56.6825Z" fill="#78C4EE"/>
<path d="M56.7057 8.04613L60.2212 3.45237C60.2212 3.45237 77.1233 1.16727 95.1195 5.52545C97.0286 5.9966 98.2858 6.82112 94.1883 6.6091C89.8115 6.39708 83.8515 6.39708 77.3561 7.17449C68.1135 8.2817 64.9705 10.8495 60.4773 12.4985H60.454C60.4307 12.5221 60.1746 11.8625 59.8021 11.3678C59.4995 10.9673 59.0804 10.7081 59.0804 10.7081C58.5217 10.7788 53.3766 12.1923 51.8633 12.7341L56.6825 8.04613H56.7057Z" fill="#7CC5EE"/>
<path d="M56.7288 8.04621L60.2443 3.49957C60.2443 3.49957 77.0998 1.21447 95.0262 5.52553C96.912 5.99669 98.1692 6.79765 94.095 6.60919C89.7414 6.39717 83.7815 6.42073 77.3326 7.17458C68.1133 8.28179 64.9936 10.826 60.5469 12.4751C60.5237 12.4986 60.2676 11.839 59.8951 11.3443C59.5924 10.9438 59.1733 10.7082 59.1733 10.7082C58.6146 10.7789 53.4928 12.1924 51.9795 12.7106L56.7754 8.04621H56.7288Z" fill="#7CC5EE"/>
<path d="M56.7288 8.02308L60.221 3.5C60.221 3.5 77.0067 1.2149 94.8633 5.47885C96.749 5.92644 97.9829 6.72741 93.9087 6.53895C89.5784 6.32693 83.6418 6.35048 77.2162 7.12789C68.0434 8.2351 64.9471 10.85 60.5004 12.4048C60.4771 12.4048 60.221 11.7688 59.8485 11.2976C59.5458 10.8971 59.1501 10.6616 59.1501 10.6616C58.5913 10.7322 53.4928 12.1457 51.9795 12.664L56.7521 8.04664L56.7288 8.02308Z" fill="#7EC5EE"/>
<path d="M56.7521 8.02291L60.221 3.54694C60.221 3.54694 76.9368 1.23828 94.7236 5.45512C96.6093 5.90271 97.82 6.70368 93.769 6.51521C89.4388 6.32675 83.5254 6.32675 77.1231 7.10416C67.9969 8.21137 64.9238 10.8027 60.5004 12.3575H60.4771C60.4538 12.3811 60.1977 11.7215 59.8252 11.2503C59.5226 10.8498 59.1268 10.6143 59.1035 10.6143C58.568 10.6849 53.4928 12.0748 51.9795 12.6167L56.7288 8.02291H56.7521Z" fill="#7FC5EE"/>
<path d="M56.775 8.02267L60.2439 3.57026C60.2439 3.57026 76.8899 1.2616 94.6068 5.43132C96.4693 5.87892 97.6799 6.65633 93.629 6.46786C89.322 6.2794 83.4319 6.30296 77.0529 7.08036C67.95 8.18758 64.9234 10.7789 60.5233 12.3102C60.5 12.3102 60.2439 11.6977 59.8714 11.203C59.5688 10.826 59.173 10.5669 59.173 10.5669C58.6375 10.6376 53.5623 12.0275 52.0723 12.5458L56.7983 7.97556L56.775 8.02267Z" fill="#81C6EE"/>
<path d="M56.7983 8.0229L60.2439 3.59404C60.2439 3.59404 76.8201 1.30894 94.4671 5.40799C96.3296 5.85558 97.5169 6.60943 93.4893 6.44453C89.2056 6.25607 83.3155 6.27962 76.983 7.05703C67.9267 8.16424 64.9001 10.6849 60.5233 12.2633H60.5C60.4767 12.2868 60.2206 11.6508 59.8481 11.1796C59.5455 10.8027 59.1497 10.5671 59.1264 10.5671C58.591 10.6378 53.539 12.0277 52.0723 12.546L56.775 8.0229H56.7983Z" fill="#81C6EE"/>
<path d="M56.7968 8.02333L60.2192 3.61803C60.2192 3.61803 76.7255 1.30937 94.3027 5.38486C96.1419 5.8089 97.3292 6.56275 93.3249 6.39784C89.0644 6.23294 83.1976 6.2565 76.8884 7.0339C67.8554 8.14112 64.8754 10.6382 60.5218 12.2402C60.4985 12.2637 60.2424 11.6277 59.8699 11.1565C59.5906 10.7796 59.1715 10.544 59.1715 10.544C58.6361 10.6147 53.6306 12.0046 52.1406 12.5229L56.8201 8.02333H56.7968Z" fill="#83C6EF"/>
<path d="M56.8204 8.02343L60.2428 3.66525C60.2428 3.66525 76.7025 1.35659 94.2099 5.38496C96.0491 5.809 97.2131 6.53929 93.2088 6.39795C88.9716 6.23304 83.1048 6.2566 76.8422 7.03401C67.8557 8.14122 64.899 10.6383 60.5454 12.2167C60.5221 12.2403 60.266 11.6278 59.8935 11.1566C59.5909 10.7797 59.1951 10.5441 59.1951 10.5441C58.6596 10.6148 53.6542 12.0047 52.1875 12.523L56.8437 8.04699L56.8204 8.02343Z" fill="#84C7EF"/>
<path d="M56.844 8.02289L60.2431 3.68827C60.2431 3.68827 76.633 1.40317 94.0705 5.36087C95.9097 5.7849 97.0505 6.51519 93.0694 6.35029C88.8322 6.18539 83.012 6.20894 76.7494 6.98635C67.8094 8.09356 64.876 10.6378 60.5457 12.1455C60.5224 12.1691 60.2664 11.5566 59.9171 11.0854C59.6145 10.7085 59.2187 10.4729 59.2187 10.4729C58.6832 10.5436 53.7011 11.9099 52.2344 12.4282L56.8673 7.99933L56.844 8.02289Z" fill="#84C7EF"/>
<path d="M56.8452 8.02301L60.2209 3.71195C60.2209 3.71195 76.541 1.40329 93.9087 5.33743C95.7246 5.73791 96.8654 6.4682 92.8843 6.32686C88.6704 6.16195 82.8501 6.20907 76.6341 6.98647C67.7407 8.09369 64.8073 10.5672 60.5236 12.1221C60.5003 12.1456 60.2442 11.5331 59.895 11.0855C59.6156 10.7086 59.1966 10.4966 59.1966 10.4966C58.6611 10.5672 53.7022 11.9336 52.2588 12.4519L56.8917 8.04657L56.8452 8.02301Z" fill="#85C8EF"/>
<path d="M56.8676 8.02348L60.2434 3.75953C60.2434 3.75953 76.4936 1.45087 93.7914 5.33789C95.6073 5.73838 96.7248 6.46867 92.7671 6.32732C88.5765 6.18597 82.7562 6.20953 76.5867 6.98694C67.7166 8.09415 64.7832 10.2143 60.546 12.1225H60.5228C60.4995 12.1225 60.2434 11.5336 59.8942 11.086C59.6148 10.7326 59.1957 10.497 59.1957 10.497C58.6835 10.6384 53.748 11.9341 52.2812 12.4288L56.8909 8.04703L56.8676 8.02348Z" fill="#87C8EF"/>
<path d="M32.4931 18.5773L35.38 10.7562H4.99818C4.99818 10.7797 2.11133 18.5773 2.11133 18.5773H13.0302C12.7973 19.2369 2.90289 46.3048 2.90289 46.3048H11.8428C11.8428 46.3048 21.877 18.8836 21.9934 18.5773H32.4931ZM36.8001 42.1586C36.0319 42.088 35.3102 42.1115 34.5419 42.1586C33.5641 42.2057 32.5397 42.2764 31.3058 42.1115C29.4433 41.8524 27.4877 40.7452 27.4877 38.4129C27.4877 32.6177 38.0806 30.8509 40.2225 30.5682H40.3622L43.7146 21.3336H24.5077C24.5077 21.3571 21.9934 28.1889 21.9934 28.1889C21.9934 28.1889 27.3015 28.1889 29.6994 28.1889C22.296 30.4504 17.2208 35.586 17.2208 40.7923C17.2208 45.9985 17.2673 41.8524 17.3837 42.3942C18.5245 47.836 26.7427 47.2471 29.6761 46.8702C28.3491 47.836 22.7617 51.8644 22.7617 51.8644L22.9712 52.0764L27.9766 56.9058L32.6794 53.0659C35.9853 50.3803 36.6837 49.7913 36.8467 49.6029L36.8001 49.6971C37.5451 49.0846 39.7568 47.2235 39.7568 44.8207C39.7568 42.4178 39.5008 43.4543 38.9653 43.0067C38.2901 42.4413 37.8012 42.2529 36.8234 42.1586M143.358 24.4197C141.356 21.9461 138.329 20.5797 134.814 20.5797C127.806 20.5797 121.567 25.4326 118.493 33.2067C118.493 33.2067 115.746 40.2976 115.42 41.1928C115.071 40.5567 113.325 37.4471 113.325 37.4471L113.116 37.5884C108.203 40.8158 104.897 40.3918 104.292 40.2976C102.01 39.8735 100.637 38.3423 100.614 36.1514V35.9394H109.297L110.624 31.8875H102.01C102.15 31.7225 102.29 31.5341 102.29 31.5341C103.78 29.6024 105.852 28.2831 107.714 28.0947C109.926 27.8591 112.417 27.5999 116.096 29.0134L116.305 29.1076L118.936 22.8177L118.75 22.6999C116.515 21.3336 111.975 20.4148 109.134 20.4148C101.661 20.4148 94.0949 26.799 92.5816 34.3846C91.8832 37.8476 92.5351 41.1221 94.3976 43.5956C96.3532 46.187 99.4961 47.7418 103.221 47.9774C107.877 48.2836 111.346 47.1293 113.604 45.975C113.185 47.0822 109.437 57 109.437 57H118.284L126.898 34.2432C126.991 34.0076 129.18 28.3067 133.743 28.3067C134.953 28.3067 135.978 28.8014 136.629 29.6966C137.491 30.8509 137.677 32.5706 137.142 34.361C136.164 37.6591 133.161 40.274 130.297 40.3211C128.9 40.3211 127.783 39.9913 126.991 39.261L126.595 38.9077L126.246 47.412L126.828 47.5769C127.969 47.9067 128.062 47.9303 129.226 47.9303V47.9774C136.629 47.9774 143.893 41.8288 145.43 34.2668C146.175 30.5682 145.43 27.0817 143.334 24.5139M106.667 13.6302H97.2844L97.2146 13.7009C96.9818 13.9129 81.9887 27.6471 78.4035 30.9451C79.0088 29.3432 82.0353 21.3807 82.0353 21.3807H81.6628H73.0721L63.6432 46.2812H72.6297C72.6297 46.2577 76.2849 35.9865 76.6341 35.0442C77.7981 37.1879 82.5009 45.7865 82.7105 46.2341L82.7803 46.3755H93.6293C93.6293 46.3755 86.0862 33.725 85.8767 33.3716C86.1561 33.0889 106.667 13.6302 106.667 13.6302ZM66.8095 34.3139C67.5545 30.6153 66.8095 27.1523 64.7375 24.561C62.7353 22.0639 59.7087 20.6975 56.1933 20.6975C48.7899 20.7211 41.5262 26.8697 39.9897 34.3846C39.2447 38.1067 39.9897 41.5697 42.0617 44.161C44.0638 46.6582 47.1137 48.0245 50.6058 48.0245C58.0325 48.0245 65.2729 41.8524 66.7862 34.3139M58.5214 34.4081C57.5669 37.7062 54.4938 40.3682 51.6768 40.3682C48.8597 40.3682 49.4651 39.8735 48.7899 38.9548C47.9285 37.8004 47.7423 36.0807 48.2777 34.2903C49.2323 31.0158 52.3054 28.3538 55.1224 28.3538C57.9394 28.3538 57.3806 28.8485 58.0325 29.7673C58.8706 30.9216 59.0569 32.6177 58.5214 34.4081Z" fill="#24397A"/>
<path d="M31.0724 16.1508L33.9593 8.32959H3.60072C3.60072 8.35315 0.713867 16.1508 0.713867 16.1508H11.6327C11.3999 16.8104 1.50542 43.8782 1.50542 43.8782H10.4454C10.4454 43.8782 20.4795 16.457 20.5959 16.1508H31.0957H31.0724ZM35.3794 39.732C34.6111 39.6614 33.8894 39.6849 33.1211 39.732C32.1433 39.7792 31.119 39.8498 29.8851 39.6849C28.0226 39.4258 26.067 38.3186 26.067 35.9864C26.067 30.1912 36.6599 28.4479 38.8017 28.1416H38.9414L42.3172 18.907H23.1103C23.1103 18.9306 20.5959 25.7623 20.5959 25.7623C20.5959 25.7623 25.904 25.7623 28.302 25.7623C20.8986 28.0239 15.8233 33.1594 15.8233 38.3657C15.8233 43.572 15.8699 39.4258 15.9863 39.9676C17.127 45.4095 25.3685 44.8441 28.2787 44.4436C26.9517 45.4095 21.3875 49.4378 21.3875 49.4378L21.597 49.6499L26.6024 54.4792L31.2819 50.6628C34.5878 47.9773 35.2863 47.3883 35.4492 47.1999L35.4027 47.2941C36.1477 46.6816 38.3594 44.8205 38.3594 42.4176C38.3594 40.0147 38.1033 41.0513 37.5678 40.6037C36.8927 40.0383 36.4038 39.8498 35.426 39.7556M141.96 22.0166C139.958 19.5431 136.932 18.1767 133.416 18.1767C126.408 18.1767 120.169 23.0296 117.096 30.8037C117.096 30.8037 114.349 37.9181 114.023 38.7897C113.674 38.1537 111.928 35.0441 111.928 35.0441L111.695 35.1854C106.783 38.4128 103.477 37.9888 102.871 37.871C100.59 37.447 99.2161 35.9157 99.1929 33.7248C99.1929 33.7248 99.1929 33.6306 99.1929 33.5128H107.877L109.204 29.4609H100.59C100.729 29.296 100.869 29.1075 100.869 29.1075C102.359 27.1758 104.431 25.8565 106.294 25.6681C108.505 25.4325 110.996 25.1734 114.675 26.5868L114.908 26.6811L117.515 20.3911L117.329 20.2734C115.094 18.907 110.554 17.9883 107.714 17.9883C100.264 17.9883 92.6742 24.3724 91.1609 31.958C90.4625 35.421 91.1143 38.6955 92.9768 41.1455C94.9324 43.7369 98.0754 45.2917 101.8 45.5273C106.457 45.8335 109.925 44.6792 112.184 43.5248C111.765 44.6321 108.016 54.5499 108.016 54.5499H116.863L125.477 31.7931C125.57 31.5575 127.759 25.8565 132.322 25.8565C133.532 25.8565 134.557 26.3513 135.209 27.2465C136.07 28.4008 136.256 30.0969 135.721 31.9109C134.743 35.1854 131.74 37.8003 128.876 37.871C127.479 37.871 126.362 37.5412 125.57 36.8109L125.175 36.4575L124.849 44.9619L125.431 45.1268C126.571 45.4566 126.688 45.4801 127.829 45.4801V45.5273C135.232 45.5273 142.496 39.3787 144.032 31.8167C144.777 28.0945 144.032 24.6315 141.937 22.0637M105.269 11.1801H95.9102L95.8404 11.2507C95.6076 11.4628 80.6146 25.1969 77.0293 28.495C77.6346 26.8931 80.6611 18.9306 80.6611 18.9306H80.3119H71.7212L62.2923 43.8311H71.2556C71.2556 43.8075 74.9107 33.5364 75.2599 32.5941C76.424 34.7378 81.1267 43.3364 81.3363 43.784L81.4061 43.9253H92.2551C92.2551 43.9253 84.6887 31.2748 84.5025 30.9215C84.7819 30.6388 105.293 11.1801 105.293 11.1801M65.4353 31.8638C66.1803 28.1652 65.4353 24.7022 63.3633 22.1109C61.3611 19.6137 58.3346 18.2474 54.8191 18.2474C47.4157 18.271 40.152 24.4195 38.6155 31.9344C37.8705 35.6566 38.6155 39.1196 40.6875 41.7109C42.6897 44.208 45.7395 45.5744 49.2549 45.5744C56.6583 45.5744 63.922 39.4022 65.4353 31.8638ZM57.1705 31.958C56.216 35.2561 53.1429 37.9181 50.3259 37.9181C47.5089 37.9181 48.0909 37.4234 47.439 36.5046C46.5776 35.3503 46.3914 33.6306 46.9268 31.8167C47.8813 28.5421 50.9545 25.8801 53.7715 25.8801C56.5885 25.8801 56.0297 26.3748 56.6816 27.2936C57.5197 28.4479 57.706 30.1441 57.1705 31.9344" fill="url(#paint0_linear_8762_9961)"/>
<path d="M3.9968 42.5819C4.34602 41.5925 10.9811 23.5001 13.3092 17.0924C13.4024 16.8568 13.286 16.5741 13.0531 16.5035C12.8203 16.4092 12.541 16.527 12.4711 16.7862C10.1197 23.1939 3.5079 41.3098 3.15868 42.2756C3.06556 42.5112 3.18197 42.7939 3.43806 42.8646C3.67087 42.9588 3.92696 42.841 4.02008 42.5819M3.25181 14.8544C3.60103 13.9121 4.88149 10.4727 5.04445 10.0015L4.62539 9.83663V10.3078C5.2307 10.3078 30.8166 10.3078 31.8875 10.3078C32.1436 10.3078 32.3532 10.0958 32.3532 9.83663C32.3532 9.5775 32.1436 9.36548 31.8875 9.36548C30.8166 9.36548 5.2307 9.36548 4.62539 9.36548C4.02008 9.36548 4.2529 9.48327 4.20633 9.67173C4.02008 10.1429 2.73963 13.6059 2.41369 14.5246C2.32057 14.7602 2.43697 15.0429 2.69306 15.1136C2.92587 15.2078 3.18197 15.09 3.27509 14.8309M93.3729 37.6583C93.0237 36.6924 92.8607 35.6324 92.8607 34.5251C92.8607 33.4179 92.9306 33.0174 93.0935 32.24C93.7687 28.8948 95.7709 25.7852 98.4715 23.5237C101.149 21.2621 104.501 19.8251 107.784 19.8487C108.04 19.8487 108.25 19.6367 108.25 19.3775C108.25 19.1184 108.04 18.9064 107.784 18.9064C104.245 18.9064 100.706 20.4141 97.8894 22.8169C95.0491 25.2198 92.9306 28.4708 92.2088 32.0751C92.0459 32.9232 91.9528 33.7477 91.9528 34.5487C91.9528 35.7737 92.139 36.928 92.5115 38.0117C92.6046 38.2473 92.8607 38.3886 93.0935 38.2944C93.3263 38.2001 93.466 37.941 93.3729 37.7054M102.546 39.7314C102.825 39.7785 103.267 39.8492 103.873 39.8492C105.479 39.8492 108.18 39.4487 111.625 37.4227C111.835 37.3049 111.928 37.0223 111.788 36.7867C111.672 36.5747 111.392 36.4804 111.16 36.6218C107.854 38.5535 105.316 38.9069 103.849 38.9069C103.291 38.9069 102.895 38.8598 102.685 38.8126C102.429 38.7655 102.196 38.9304 102.15 39.1896C102.103 39.4487 102.266 39.6843 102.522 39.7314M100.613 31.3448H107.202C107.458 31.3448 107.667 31.1328 107.667 30.8737C107.667 30.6146 107.458 30.4025 107.202 30.4025H100.613C100.357 30.4025 100.148 30.6146 100.148 30.8737C100.148 31.1328 100.357 31.3448 100.613 31.3448ZM110.578 53.1829C111.02 52.0521 115.117 41.192 115.257 40.8386C115.653 39.8256 118.866 31.4862 118.866 31.4862C121.659 24.4189 127.247 20.0842 133.416 20.0842C133.672 20.0842 133.882 19.8722 133.882 19.6131C133.882 19.354 133.672 19.1419 133.416 19.1419C126.805 19.1419 120.891 23.7828 118.004 31.1328C118.004 31.1328 114.792 39.4723 114.396 40.4852C114.256 40.8386 110.159 51.6987 109.716 52.8295C109.623 53.0651 109.74 53.3242 109.972 53.4184C110.205 53.5127 110.485 53.3949 110.578 53.1593M126.409 39.3074C127.154 39.5665 127.945 39.7314 128.83 39.7314H128.923C130.786 39.6843 132.648 38.8598 134.185 37.5405C135.721 36.2213 136.955 34.4309 137.56 32.4049C137.63 32.1694 137.491 31.9102 137.258 31.816C137.025 31.7453 136.769 31.8867 136.676 32.1222C136.14 33.9598 134.999 35.6088 133.579 36.8338C132.159 38.0352 130.483 38.7655 128.9 38.7891H128.807C128.038 38.7891 127.34 38.6477 126.665 38.4122C126.432 38.3179 126.176 38.4593 126.083 38.6949C125.99 38.9304 126.129 39.1896 126.362 39.2838M64.7837 42.4405C65.2261 41.2626 72.9088 21.003 73.0951 20.4847L72.676 20.3198V20.791C73.1882 20.791 77.6116 20.791 78.5196 20.791C78.7757 20.791 78.9852 20.579 78.9852 20.3198C78.9852 20.0607 78.7757 19.8487 78.5196 19.8487C77.6116 19.8487 73.1882 19.8487 72.676 19.8487C72.4898 19.8487 72.3268 19.9665 72.257 20.1549C72.0474 20.6732 64.3879 40.9328 63.9456 42.1107C63.8525 42.3463 63.9689 42.6054 64.2017 42.6997C64.4345 42.7939 64.6906 42.6761 64.7837 42.4405ZM82.6403 42.1343C82.4541 41.7809 79.0783 35.5852 77.4719 32.6405C77.3555 32.4049 77.0761 32.3343 76.8433 32.4521C76.6338 32.5698 76.5407 32.8525 76.6571 33.0881C78.2635 36.0328 81.6392 42.2285 81.8255 42.5819C81.9419 42.8175 82.2213 42.8881 82.4541 42.7703C82.6869 42.6526 82.7567 42.3699 82.6403 42.1343ZM79.8466 28.3766C85.1081 23.5472 96.5391 13.064 96.7487 12.8991L96.446 12.5458V13.0169H101.591C101.847 13.0169 102.057 12.8049 102.057 12.5458C102.057 12.2866 101.847 12.0746 101.591 12.0746H96.446C96.3296 12.0746 96.2132 12.1217 96.1433 12.1924C95.9338 12.3809 84.5028 22.8405 79.2413 27.6698C79.055 27.8347 79.0318 28.141 79.218 28.3295C79.381 28.5179 79.6836 28.5415 79.8699 28.3766M17.7094 37.8939C17.8491 35.6795 19.1761 33.3944 21.4343 31.4626C23.6926 29.5309 26.8356 27.9525 30.5372 27.1045C30.7933 27.0573 30.933 26.7982 30.8865 26.5391C30.8399 26.2799 30.5838 26.1386 30.351 26.1857C26.5329 27.0573 23.2503 28.6828 20.8756 30.7323C18.5009 32.7819 16.9876 35.2554 16.8247 37.7997C16.8247 38.0588 17.0109 38.2708 17.267 38.2944C17.5231 38.2944 17.7326 38.1295 17.7559 37.8703M23.9254 49.9083C24.717 49.343 30.5372 45.1026 30.5372 45.1026C30.7468 44.9612 30.7933 44.655 30.6537 44.4665C30.514 44.2545 30.2113 44.2074 30.0251 44.3487C30.0251 44.3487 28.5584 45.4088 27.0218 46.5396C25.462 47.6704 23.809 48.8718 23.4132 49.1545C23.2037 49.2958 23.1571 49.6021 23.3201 49.8141C23.4598 50.0261 23.7624 50.0732 23.9487 49.9319M23.1571 24.4189C23.4831 23.5472 24.4376 20.9559 24.6006 20.5083L24.1815 20.3434V20.8145C24.7403 20.8145 39.128 20.8145 40.3153 20.8145C40.5714 20.8145 40.7809 20.6025 40.7809 20.3434C40.7809 20.0842 40.5714 19.8722 40.3153 19.8722C39.1512 19.8722 24.7403 19.8722 24.1815 19.8722C23.9953 19.8722 23.809 19.99 23.7624 20.1785C23.5995 20.6261 22.645 23.2174 22.319 24.0891C22.2259 24.3246 22.3423 24.5838 22.5984 24.678C22.8312 24.7722 23.1106 24.6309 23.1804 24.3953M48.4637 39.4251C49.069 39.6372 49.6976 39.7314 50.3727 39.7314C52.2119 39.7314 54.0744 38.8833 55.6343 37.5641C57.1941 36.2449 58.4513 34.4309 59.0333 32.3814C59.1031 32.1458 58.9635 31.8867 58.7306 31.816C58.4745 31.7453 58.2417 31.8867 58.1486 32.1222C57.6132 33.9598 56.4491 35.6324 55.0289 36.8574C53.6088 38.0824 51.9093 38.8126 50.3494 38.8126C49.7674 38.8126 49.232 38.7184 48.7431 38.5535C48.5102 38.4593 48.2309 38.6006 48.161 38.8362C48.0679 39.0718 48.2076 39.3309 48.4404 39.4251M40.7576 37.6819C40.4317 36.716 40.2687 35.6795 40.2687 34.5958C40.2687 33.5122 40.3386 33.0174 40.5248 32.2165C41.2 28.8948 43.1323 25.8559 45.7398 23.6415C48.3473 21.427 51.6066 20.0607 54.8427 20.0607C55.0988 20.0607 55.3083 19.8487 55.3083 19.5895C55.3083 19.3304 55.0988 19.1184 54.8427 19.1184C51.3505 19.1184 47.9049 20.6025 45.1578 22.9112C42.4106 25.2434 40.3386 28.4472 39.6169 32.0045C39.4306 32.8761 39.3608 33.7477 39.3608 34.5723C39.3608 35.7501 39.5237 36.9045 39.8962 37.9646C39.9661 38.2001 40.2455 38.3415 40.4783 38.2473C40.7111 38.1766 40.8508 37.8939 40.7576 37.6583" fill="#FFF69E"/>
<path d="M56.845 19.7553C56.845 19.4726 56.6355 19.2606 56.3561 19.2606C56.0767 19.2606 55.8672 19.4726 55.8672 19.7553C55.8672 20.038 56.0767 20.25 56.3561 20.25C56.6355 20.25 56.845 20.038 56.845 19.7553Z" fill="#FFF69E"/>
<path d="M59.2425 30.8272C59.2425 30.5445 59.0329 30.3325 58.7536 30.3325C58.4742 30.3325 58.2646 30.5445 58.2646 30.8272C58.2646 31.1099 58.4742 31.3219 58.7536 31.3219C59.0329 31.3219 59.2425 31.1099 59.2425 30.8272Z" fill="#FFF69E"/>
<path d="M137.77 30.8272C137.77 30.5445 137.56 30.3325 137.281 30.3325C137.002 30.3325 136.792 30.5445 136.792 30.8272C136.792 31.1099 137.002 31.3219 137.281 31.3219C137.56 31.3219 137.77 31.1099 137.77 30.8272Z" fill="#FFF69E"/>
<path d="M109.809 19.496C109.809 19.2369 109.599 19.0013 109.32 19.0013C109.041 19.0013 108.831 19.2133 108.831 19.496C108.831 19.7787 109.041 19.9907 109.32 19.9907C109.599 19.9907 109.809 19.7787 109.809 19.496Z" fill="#FFF69E"/>
<path d="M135.465 19.7074C135.465 19.4483 135.256 19.2127 134.976 19.2127C134.697 19.2127 134.487 19.4247 134.487 19.7074C134.487 19.9901 134.697 20.2021 134.976 20.2021C135.256 20.2021 135.465 19.9901 135.465 19.7074Z" fill="#FFF69E"/>
<path d="M101.545 38.6721C101.545 38.3894 101.336 38.1774 101.056 38.1774C100.777 38.1774 100.567 38.3894 100.567 38.6721C100.567 38.9548 100.777 39.1669 101.056 39.1669C101.336 39.1669 101.545 38.9548 101.545 38.6721Z" fill="#FFF69E"/>
<path d="M94.1175 39.2844C94.1175 39.0018 93.9079 38.7897 93.6286 38.7897C93.3492 38.7897 93.1396 39.0018 93.1396 39.2844C93.1396 39.5671 93.3492 39.7792 93.6286 39.7792C93.9079 39.7792 94.1175 39.5671 94.1175 39.2844Z" fill="#FFF69E"/>
<path d="M17.803 39.2844C17.803 39.0018 17.5935 38.7897 17.3141 38.7897C17.0347 38.7897 16.8252 39.0018 16.8252 39.2844C16.8252 39.5671 17.0347 39.7792 17.3141 39.7792C17.5935 39.7792 17.803 39.5671 17.803 39.2844Z" fill="#FFF69E"/>
<path d="M41.2913 39.2844C41.2913 39.0018 41.0818 38.7897 40.8024 38.7897C40.523 38.7897 40.3135 39.0018 40.3135 39.2844C40.3135 39.5671 40.523 39.7792 40.8024 39.7792C41.0818 39.7792 41.2913 39.5671 41.2913 39.2844Z" fill="#FFF69E"/>
<path d="M54.5408 12.7581H54.6573C54.8435 12.8052 58.7082 13.4177 61.2924 18.2234V10.6379C61.2924 10.6379 69.2545 7.90516 72.7001 6.72728H61.2924V0.201782C60.0585 1.26188 53.6562 6.72728 53.6562 6.72728H43.8315C45.7639 7.81093 50.164 10.2609 50.164 10.2609C46.2062 13.559 43.2961 15.9933 41.4336 17.5638C44.949 16.2682 54.5641 12.7581 54.5641 12.7581" fill="white"/>
<defs>
<linearGradient id="paint0_linear_8762_9961" x1="72.5127" y1="54.4556" x2="72.5127" y2="8.32959" gradientUnits="userSpaceOnUse">
<stop offset="0.3" stop-color="#F59A00"/>
<stop offset="0.5" stop-color="#F8B91A"/>
<stop offset="0.7" stop-color="#FCD733"/>
<stop offset="0.9" stop-color="#FEE942"/>
<stop offset="1" stop-color="#FFF048"/>
</linearGradient>
</defs>
</svg>
